<svg width="4211" height="3264" viewBox="0 0 4211 3264" fill="none" xmlns="http://www.w3.org/2000/svg">
<path d="M1473 1227C1465.79 1228.16 1459.81 1236.86 1454.99 1241.91C1443.71 1253.73 1431.51 1264.64 1420.38 1276.63C1415.55 1281.83 1408.95 1287.42 1409 1295C1403.35 1299.41 1404 1308.53 1404 1315C1404 1331.07 1405.89 1351.2 1422 1360L1421 1362L1439 1377L1438 1379C1448.46 1386.51 1460.15 1407.84 1473 1410C1474.31 1416.29 1483.54 1425.92 1490 1427C1491.31 1433.29 1500.54 1442.92 1507 1444C1508.3 1450.24 1517.68 1459.94 1524 1461C1525.74 1467.17 1534.59 1476.92 1541 1478L1548 1489L1558 1495L1565 1506L1571 1512L1582 1523L1588 1529L1599 1540L1605 1546L1618 1555L1616 1557L1621 1558L1622 1563C1628.84 1563.93 1634.42 1580.95 1641.92 1579.17C1647.92 1577.75 1655.04 1560.14 1658.19 1555C1673.38 1530.2 1691.69 1505.34 1704 1479L1720 1494L1710 1485L1711 1483L1693 1468L1694 1466C1677.4 1454.14 1663.12 1436.19 1648.79 1421.71C1644.12 1416.99 1636.86 1406.33 1630 1406C1627.43 1396.6 1615.01 1388.66 1608.37 1381.87C1594.33 1367.53 1580.29 1353.07 1565.99 1339.04C1558.99 1332.18 1549.86 1325.63 1545 1317C1561.97 1307.68 1576.93 1286.39 1590.67 1272.88C1597.39 1266.27 1606.8 1259.59 1611 1251L1613 1252C1627.53 1231.37 1650.48 1213.69 1668.42 1195.89C1675 1189.36 1684.77 1182.22 1689 1174L1701.02 1183.63L1732.13 1211.63L1745 1223C1754.12 1225.12 1777.67 1238.53 1786 1229C1798.54 1230.27 1811.08 1221.76 1819.42 1213.16C1822.77 1209.71 1826.5 1207.09 1826 1202C1830.53 1199.51 1833.32 1192.04 1833 1187C1836.64 1183.82 1835.05 1175.55 1834.92 1171C1834.53 1157.14 1827.15 1127.46 1810 1125C1807.52 1118.27 1800.28 1113.71 1795.01 1109.13C1784.77 1100.22 1775.37 1090.37 1765 1081.59C1746.98 1066.33 1730.86 1044.78 1708 1036.65C1672.36 1023.97 1647.37 1049.35 1624.63 1072.45C1602.2 1095.23 1579.71 1118.29 1556.58 1140.33C1535.08 1160.82 1512.55 1181.63 1492.84 1203.84C1486.74 1210.72 1474.51 1217.48 1473 1227Z" fill="#FC30B0"/>
<path d="M1679 1034L1680 1035L1679 1034ZM1697 1034L1698 1035L1697 1034Z" fill="#B001A5"/>
<path d="M1654 1044L1655 1045L1654 1044ZM1630 1066L1631 1067L1630 1066ZM1756 1074L1757 1075L1756 1074ZM1621 1075L1622 1076L1621 1075ZM1618 1078L1619 1079L1618 1078ZM1604 1092L1605 1093L1604 1092ZM1601 1095L1602 1096L1601 1095ZM1790 1105L1791 1106L1790 1105ZM1791 1106L1792 1107L1791 1106ZM1587 1109L1588 1110L1587 1109ZM1584 1112L1585 1113L1584 1112ZM1810 1124L1811 1125L1810 1124ZM1813 1126L1814 1127L1813 1126ZM1831 1151V1154H1832L1831 1151ZM1832 1154L1833 1155L1832 1154ZM1834 1162L1835 1163L1834 1162ZM1834.33 1167.67L1834.67 1168.33L1834.33 1167.67Z" fill="#FE6655"/>
<path d="M1689 1174L1690 1175L1689 1174Z" fill="#FF8227"/>
<path d="M1680 1183L1681 1184L1680 1183Z" fill="#FE6655"/>
<path d="M1679 1184L1680 1185L1679 1184Z" fill="#FF8227"/>
<path d="M1833 1187L1834 1188L1833 1187ZM1508 1188L1509 1189L1508 1188Z" fill="#FE6655"/>
<path d="M1675 1188L1676 1189L1675 1188ZM1672 1191L1673 1192L1672 1191Z" fill="#FF8227"/>
<path d="M1829 1197L1830 1198L1829 1197ZM1826 1202L1827 1203L1826 1202ZM1491 1205L1492 1206L1491 1205ZM1823 1208L1824 1209L1823 1208ZM1818 1213L1819 1214L1818 1213ZM1815.67 1216.33L1816.33 1216.67L1815.67 1216.33ZM1813 1218L1814 1219L1813 1218ZM1474 1222L1475 1223L1474 1222ZM1801 1225L1802 1226L1801 1225ZM1797 1227L1798 1228L1797 1227ZM1786.33 1229.67L1786.67 1230.33L1786.33 1229.67ZM1457 1239L1458 1240L1457 1239ZM1611 1251L1612 1252L1611 1251ZM1440 1256L1441 1257L1440 1256ZM1423 1273L1424 1274L1423 1273ZM1417 1279L1418 1280L1417 1279Z" fill="#FE6655"/>
<path d="M675 1294C661.87 1295.48 660.217 1313.92 654 1322C653.71 1328.29 651.323 1334.52 651.039 1341C647.232 1427.96 651 1515.95 651 1603C651 1639.35 643.167 1685.16 676.17 1710.02C690.793 1721.03 706.023 1719.55 723 1721.17C765.348 1725.2 809.441 1722 852 1722C852 1783.66 852.297 1845.34 851.999 1907C851.863 1935.17 845.899 1966.09 867.885 1988.37C886.014 2006.74 908.141 2006 932 2006H1007H1130C1151.09 2006 1174.4 2009.34 1193.83 1999.52C1208.28 1992.22 1219.23 1978.65 1230.42 1967.29C1249.45 1947.96 1268.82 1928.81 1288.46 1910.12C1305.12 1894.27 1321.15 1877.7 1337.37 1861.39C1343.19 1855.55 1353.44 1849.06 1356 1841L1370.71 1828.29L1396.44 1803.42L1410 1788L1420.36 1779.65L1444 1754L1453.96 1747.89L1464 1753C1466.01 1758.59 1474.94 1769.28 1481 1770L1484 1773C1485.67 1778.85 1494.94 1789.05 1501 1790C1502.47 1795.18 1507.22 1799.71 1512 1802C1510.51 1792.08 1519.68 1782.16 1524.6 1774C1534.89 1756.94 1545.46 1740.03 1555.8 1723C1560.82 1714.72 1565.23 1704 1573 1698L1575 1703H1576H1577C1571.19 1690.54 1555.22 1678.83 1545.16 1669.39C1529.09 1654.3 1514.65 1637.41 1498.54 1622.35C1492.81 1617 1485.58 1613.36 1480 1608L1466.96 1605.05L1431 1608L1412.75 1620.92L1357 1676L1334.9 1697.62L1324 1707L1307.33 1724.33L1253 1778L1174.17 1856.33L1140 1889.5L1126 1890H1092H970V1723C1011.75 1723 1053.3 1725 1095 1725C1114.73 1725 1137.58 1727.98 1156 1719.37C1202.6 1697.58 1199.27 1629.17 1152 1610.58C1136.85 1604.62 1118 1607 1102 1607C1077.59 1607 1053.52 1605 1029 1605H769V1398H985H1126H1210C1229.66 1398 1249.5 1398.88 1266.97 1388.37C1304.84 1365.59 1300.51 1301.19 1258.71 1285.29C1242.56 1279.14 1224.01 1281 1207 1281H1119H812C778.252 1281 743.661 1278.78 710 1281.09C698.8 1281.86 681.248 1282.88 675 1294Z" fill="#FC30B0"/>
<path d="M1575 1287L1576 1288L1575 1287Z" fill="#FE6655"/>
<path d="M1993 1287L1994 1288L1993 1287Z" fill="#FC30B0"/>
<path d="M1936 1327L1937 1329C1925.13 1334.51 1914.91 1348.67 1905.74 1357.92C1884.07 1379.77 1862.5 1401.83 1840.29 1423.08C1831.66 1431.32 1823.48 1443.15 1813 1449L1810 1455C1805.38 1455.98 1800.97 1461.83 1799 1466L1797 1465L1793 1469C1785.59 1482.88 1768.58 1494.92 1757.45 1506C1754.68 1508.75 1749.28 1516.68 1745.39 1517.23C1739.6 1518.05 1733.14 1504.68 1727 1503C1725.5 1495.71 1710 1483.63 1704 1479C1688.3 1502.72 1674.09 1527.64 1659.4 1552C1655.3 1558.79 1643.43 1571.81 1644.04 1580C1644.35 1584.2 1648.95 1586.79 1651.53 1589.61C1659.3 1598.15 1667.5 1606.25 1675.74 1614.34C1681.79 1620.29 1688.81 1631.32 1697 1634L1698 1639L1711 1647C1713.41 1651.28 1718.1 1654.01 1723 1654C1726.39 1658.55 1736.66 1659.59 1742 1659.17C1757.09 1657.96 1769.32 1655.91 1781.99 1646.57C1797.83 1634.9 1811.45 1618.01 1825.28 1604.04C1852.59 1576.44 1879.95 1548.74 1908.01 1521.91C1935.58 1495.56 1962.88 1468.34 1989.3 1440.83C1997.66 1432.12 2006.27 1423.47 2014.96 1415.09C2018.4 1411.78 2022.48 1406.29 2027.01 1404.6C2035.46 1401.45 2049.02 1404 2058 1404H2128H2354H2424C2433.7 1404 2446.54 1406.24 2455.91 1403.68C2464.1 1401.45 2471.01 1382.83 2475.32 1376C2488.22 1355.52 2500.54 1334.64 2513.19 1314C2517.35 1307.21 2522.09 1294.06 2529.18 1290.03C2533.52 1287.56 2541.15 1289 2546 1289C2532.93 1283.52 2511.14 1287 2497 1287H2390H2109H2029C2012.55 1287 1995.68 1285.28 1980.01 1291.24C1961.18 1298.4 1951.78 1315.88 1936 1327Z" fill="#FE6655"/>
<path d="M2529 1287V1288H2546V1289C2540.88 1289 2531.73 1287.23 2527.52 1290.6C2517.88 1298.34 2510.96 1316.41 2504.6 1327C2489.37 1352.37 2470.64 1377.27 2458 1404L2498 1403L2497 1602H2319V1603H2336C2323.38 1629.68 2305.19 1654.68 2290 1680C2283.3 1691.16 2276.51 1708.2 2266 1716V1717L2289 1718V1888H2163V1889H2171V1890H2160C2159.92 1900.07 2147.67 1913.54 2142.42 1922C2131.54 1939.57 2120.83 1957.28 2110.2 1975C2104.77 1984.05 2097.64 1993.07 2094 2003L2110 2002L2109 2004C2174.24 2004 2239.68 2005 2305 2005C2333.76 2005 2366.89 2010.14 2388.88 1987.33C2410.24 1965.18 2405 1934.23 2405 1906V1718H2479C2488.97 1718 2502.38 1715.59 2512 1718C2528.98 1722.25 2559.8 1720.3 2573 1717C2589.84 1712.79 2606.64 1697.08 2612 1681C2615.07 1671.8 2614 1660.36 2614 1650V1594V1407V1344C2614 1337.15 2614.07 1324.81 2610 1324L2611 1321L2608 1315L2603 1308L2597 1302L2592 1298L2584 1293L2571 1291L2561.01 1287.87L2529 1287Z" fill="#FF8227"/>
<path d="M2556 1287L2557 1288L2556 1287ZM2559 1287V1288L2566 1289L2559 1287Z" fill="#FE6655"/>
<path d="M1987 1288L1988 1289L1987 1288Z" fill="#FC30B0"/>
<path d="M2569 1288V1289L2571 1291H2572L2569 1288Z" fill="#FE6655"/>
<path d="M2571 1288L2572 1289L2571 1288ZM1980.67 1290.33L1981.33 1290.67L1980.67 1290.33Z" fill="#FC30B0"/>
<path d="M2575.67 1290.33L2576.33 1290.67L2575.67 1290.33Z" fill="#FE6655"/>
<path d="M2577 1290L2578 1291L2577 1290ZM1978.67 1291.33L1979.33 1291.67L1978.67 1291.33Z" fill="#FC30B0"/>
<path d="M2578.67 1291.33L2579.33 1291.67L2578.67 1291.33Z" fill="#FE6655"/>
<path d="M2580 1291L2581 1292L2580 1291Z" fill="#FC30B0"/>
<path d="M2581 1292L2582 1293L2581 1292Z" fill="#FE6655"/>
<path d="M2582 1293L2583 1294L2582 1293Z" fill="#FE6655"/>
<path d="M1408 1294L1409 1295L1408 1294Z" fill="#B001A5"/>
<path d="M2583 1294L2584 1295L2583 1294Z" fill="#FE6655"/>
<path d="M1970 1295L1971 1296L1970 1295Z" fill="#FC30B0"/>
<path d="M2586 1295L2589 1298L2586 1295Z" fill="#FE6655"/>
<path d="M2587 1295L2588 1296L2587 1295Z" fill="#FC30B0"/>
<path d="M1964 1299L1965 1300L1964 1299Z" fill="#FC30B0"/>
<path d="M2591 1299V1300L2594 1301L2591 1299Z" fill="#FE6655"/>
<path d="M2594 1300L2595 1301L2594 1300ZM1962 1301L1963 1302L1962 1301Z" fill="#FC30B0"/>
<path d="M2595 1302L2596 1303L2595 1302ZM2596 1303L2597 1304L2596 1303Z" fill="#FE6655"/>
<path d="M1959 1304L1960 1305L1959 1304Z" fill="#FC30B0"/>
<path d="M2598 1304L2600 1306L2598 1304Z" fill="#FE6655"/>
<path d="M2599 1304L2600 1305L2599 1304ZM1958 1305L1959 1306L1958 1305ZM1956 1307L1957 1308L1956 1307Z" fill="#FC30B0"/>
<path d="M2601 1307L2602 1308L2601 1307Z" fill="#FE6655"/>
<path d="M1955 1308L1956 1309L1955 1308Z" fill="#FC30B0"/>
<path d="M2602 1309L2603 1310L2602 1309Z" fill="#FE6655"/>
<path d="M1953 1310L1954 1311L1953 1310Z" fill="#FC30B0"/>
<path d="M2603 1310L2604 1311L2603 1310Z" fill="#FE6655"/>
<path d="M2604 1311L2605 1312L2604 1311Z" fill="#FC30B0"/>
<path d="M2605.33 1313.67L2605.67 1314.33L2605.33 1313.67ZM2607.33 1316.67L2607.67 1317.33L2607.33 1316.67Z" fill="#FE6655"/>
<path d="M2608 1317L2609 1318L2608 1317ZM1945 1318L1946 1319L1945 1318ZM1944 1319L1945 1320L1944 1319ZM1942 1321L1943 1322L1942 1321ZM1941 1322L1942 1323L1941 1322Z" fill="#FC30B0"/>
<path d="M2610 1323L2611 1324L2610 1323Z" fill="#FE6655"/>
<path d="M1939 1324L1940 1325L1939 1324ZM1938 1325L1939 1326L1938 1325Z" fill="#FC30B0"/>
<path d="M2611 1325L2612 1326L2611 1325Z" fill="#FE6655"/>
<path d="M1936 1328L1937 1329L1936 1328ZM1933 1330L1934 1331L1933 1330ZM2613 1330L2614 1331L2613 1330Z" fill="#FC30B0"/>
<path d="M2613 1331L2614 1332L2613 1331Z" fill="#FE6655"/>
<path d="M1930 1333L1931 1334L1930 1333Z" fill="#FC30B0"/>
<path d="M2613 1333L2614 1334L2613 1333ZM1406 1337L1407 1338L1406 1337Z" fill="#FE6655"/>
<path d="M1921 1342L1922 1343L1921 1342ZM1920 1343L1921 1344L1920 1343ZM1919 1344L1920 1345L1919 1344ZM1917 1346L1918 1347L1917 1346ZM1915 1348L1916 1349L1915 1348ZM1912 1351L1913 1352L1912 1351ZM1911 1352L1912 1353L1911 1352Z" fill="#FC30B0"/>
<path d="M1579 1353L1580 1354L1579 1353Z" fill="#FF8227"/>
<path d="M1417 1356L1418 1357L1417 1356Z" fill="#FE6655"/>
<path d="M1905 1358L1906 1359L1905 1358ZM1904 1359L1905 1360L1904 1359Z" fill="#FC30B0"/>
<path d="M1421 1360L1422 1361L1421 1360Z" fill="#B001A5"/>
<path d="M1900 1363L1901 1364L1900 1363ZM1896 1367L1897 1368L1896 1367ZM1894 1369L1895 1370L1894 1369Z" fill="#FC30B0"/>
<path d="M1596 1370L1597 1371L1596 1370Z" fill="#FF8227"/>
<path d="M1431 1371L1432 1372L1431 1371Z" fill="#FE6655"/>
<path d="M1890 1372L1891 1373L1890 1372Z" fill="#FC30B0"/>
<path d="M1434 1374L1435 1375L1434 1374Z" fill="#FE6655"/>
<path d="M1889 1374L1890 1375L1889 1374Z" fill="#FC30B0"/>
<path d="M1438 1377L1439 1378L1438 1377Z" fill="#B001A5"/>
<path d="M1885.33 1377.67L1885.67 1378.33L1885.33 1377.67ZM1882.67 1380.33L1883.33 1380.67L1882.67 1380.33ZM1881 1381L1882 1382L1881 1381ZM1878 1384L1879 1385L1878 1384ZM1876 1386L1877 1387L1876 1386Z" fill="#FC30B0"/>
<path d="M1613 1387L1614 1388L1613 1387Z" fill="#FF8227"/>
<path d="M1448 1388L1449 1389L1448 1388Z" fill="#FE6655"/>
<path d="M1873 1389V1391L1875 1389H1873Z" fill="#FC30B0"/>
<path d="M1451 1391L1452 1392L1451 1391Z" fill="#FE6655"/>
<path d="M1872 1391L1873 1392L1872 1391ZM1871 1392L1872 1393L1871 1392ZM1868 1394L1869 1395L1868 1394ZM1867 1396L1868 1397L1867 1396ZM1865.67 1397.33L1866.33 1397.67L1865.67 1397.33ZM1864 1398L1865 1399L1864 1398ZM1861.67 1401.33L1862.33 1401.67L1861.67 1401.33ZM1859 1403L1860 1404L1859 1403Z" fill="#FC30B0"/>
<path d="M2497 1403V1453H2498C2498 1438.95 2502.41 1415.89 2497 1403Z" fill="#FE6655"/>
<path d="M1630 1404L1631 1405L1630 1404Z" fill="#FF8227"/>
<path d="M2025 1404L2026 1405L2025 1404Z" fill="#FC30B0"/>
<path d="M1465 1405L1466 1406L1465 1405ZM1630 1405L1631 1406L1630 1405Z" fill="#FE6655"/>
<path d="M1858 1405L1859 1406L1858 1405ZM2024 1405L2025 1406L2024 1405ZM2023 1406L2024 1407L2023 1406Z" fill="#FC30B0"/>
<path d="M1468 1408L1469 1409L1468 1408Z" fill="#FE6655"/>
<path d="M1853 1410L1854 1411L1853 1410ZM1851.67 1411.33L1852.33 1411.67L1851.67 1411.33ZM2017 1412L2018 1413L2017 1412ZM1850 1413L1851 1414L1850 1413ZM2016 1413L2017 1414L2016 1413ZM1848.67 1414.33L1849.33 1414.67L1848.67 1414.33ZM2015 1414L2016 1415L2015 1414ZM1847 1415L1848 1416L1847 1415ZM2013 1416L2014 1417L2013 1416ZM2012 1417L2013 1418L2012 1417ZM1844.33 1418.67L1844.67 1419.33L1844.33 1418.67ZM1842.67 1420.33L1843.33 1420.67L1842.67 1420.33ZM2009 1420L2010 1421L2009 1420ZM2008 1421L2009 1422L2008 1421ZM1841 1422L1842 1423L1841 1422ZM2007 1422L2008 1423L2007 1422Z" fill="#FC30B0"/>
<path d="M1485 1425L1486 1426L1485 1425Z" fill="#FE6655"/>
<path d="M1838 1425L1839 1426L1838 1425Z" fill="#FC30B0"/>
<path d="M1652 1426L1653 1427L1652 1426Z" fill="#FE6655"/>
<path d="M1836.67 1426.33L1837.33 1426.67L1836.67 1426.33ZM1834.67 1428.33L1835.33 1428.67L1834.67 1428.33ZM2000 1429L2001 1430L2000 1429ZM1833 1430L1834 1431L1833 1430ZM1999 1430L2000 1431L1999 1430ZM1831.67 1431.33L1832.33 1431.67L1831.67 1431.33ZM1998 1431L1999 1432L1998 1431ZM1830 1432L1831 1433L1830 1432ZM1996 1433L1997 1434L1996 1433ZM1995 1434L1996 1435L1995 1434ZM1827 1435V1437L1829 1435H1827Z" fill="#FC30B0"/>
<path d="M1662 1436L1663 1437L1662 1436Z" fill="#B001A5"/>
<path d="M1992 1437L1993 1438L1992 1437ZM1991 1438L1992 1439L1991 1438ZM1824 1439L1825 1440L1824 1439ZM1990 1439L1991 1440L1990 1439ZM1822 1440L1823 1441L1822 1440Z" fill="#FC30B0"/>
<path d="M1502 1442L1503 1443L1502 1442Z" fill="#FE6655"/>
<path d="M1819.33 1443.67L1819.67 1444.33L1819.33 1443.67Z" fill="#FC30B0"/>
<path d="M1986 1443L1987 1444L1986 1443Z" fill="#FF8227"/>
<path d="M1983 1446L1984 1447L1983 1446ZM1816 1447L1817 1448L1816 1447ZM1982 1447L1983 1448L1982 1447ZM1814 1448L1815 1449L1814 1448ZM1981 1448L1982 1449L1981 1448ZM1813 1450L1814 1451L1813 1450Z" fill="#FC30B0"/>
<path d="M1677 1451L1678 1452L1677 1451Z" fill="#FE6655"/>
<path d="M1514 1454L1515 1455L1514 1454Z" fill="#FF8227"/>
<path d="M1809 1454L1810 1455L1809 1454ZM1975 1454L1976 1455L1975 1454ZM1974 1455L1975 1456L1974 1455Z" fill="#FC30B0"/>
<path d="M1516 1456L1517 1457L1516 1456Z" fill="#FF8227"/>
<path d="M1973 1456L1974 1457L1973 1456ZM1805 1457L1806 1458L1805 1457Z" fill="#FC30B0"/>
<path d="M1519 1459L1520 1460L1519 1459Z" fill="#FE6655"/>
<path d="M1803.67 1459.33L1804.33 1459.67L1803.67 1459.33ZM1802 1460L1803 1461L1802 1460Z" fill="#FC30B0"/>
<path d="M1969 1460L1970 1461L1969 1460Z" fill="#FF8227"/>
<path d="M1800 1462L1801 1463L1800 1462ZM1967 1462L1968 1463L1967 1462Z" fill="#FC30B0"/>
<path d="M1689 1464L1690 1465L1689 1464Z" fill="#FE6655"/>
<path d="M1525 1465L1526 1466L1525 1465Z" fill="#FF8227"/>
<path d="M1798 1465L1799 1466L1798 1465ZM1964 1465L1965 1466L1964 1465Z" fill="#FC30B0"/>
<path d="M1527 1466L1528 1467L1527 1466Z" fill="#FE6655"/>
<path d="M1796 1466L1797 1467L1796 1466ZM1962 1466L1963 1467L1962 1466Z" fill="#FC30B0"/>
<path d="M1693 1467L1694 1468L1693 1467Z" fill="#FE6655"/>
<path d="M1794 1469L1795 1470L1794 1469Z" fill="#FC30B0"/>
<path d="M1531 1471L1532 1472L1531 1471Z" fill="#FF8227"/>
<path d="M1791.67 1471.33L1792.33 1471.67L1791.67 1471.33ZM1958 1471L1959 1472L1958 1471Z" fill="#FC30B0"/>
<path d="M1697.33 1472.67L1697.67 1473.33L1697.33 1472.67Z" fill="#FE6655"/>
<path d="M1957 1472L1958 1473L1957 1472Z" fill="#FC30B0"/>
<path d="M1533 1473L1534 1474L1533 1473Z" fill="#FF8227"/>
<path d="M1955.67 1473.33L1956.33 1473.67L1955.67 1473.33Z" fill="#FC30B0"/>
<path d="M1700 1475V1478H1701L1700 1475ZM1536 1476L1537 1477L1536 1476Z" fill="#FE6655"/>
<path d="M1786.67 1476.33L1787.33 1476.67L1786.67 1476.33ZM1953 1476L1954 1477L1953 1476ZM1785 1477L1784 1479H1786L1785 1477Z" fill="#FC30B0"/>
<path d="M1952 1477L1953 1478L1952 1477Z" fill="#FF8227"/>
<path d="M1783.33 1479.67L1783.67 1480.33L1783.33 1479.67ZM1950 1479L1951 1480L1950 1479ZM1948 1480L1949 1481L1948 1480Z" fill="#FC30B0"/>
<path d="M1542 1482L1543 1483L1542 1482Z" fill="#FF8227"/>
<path d="M1780 1482L1781 1483L1780 1482ZM1947 1482L1948 1483L1947 1482Z" fill="#FC30B0"/>
<path d="M1544 1483L1545 1484L1544 1483Z" fill="#FE6655"/>
<path d="M1779 1483L1780 1484L1779 1483Z" fill="#FC30B0"/>
<path d="M1710 1484L1711 1485L1710 1484Z" fill="#FE6655"/>
<path d="M1776 1486V1488L1778 1486H1776Z" fill="#FC30B0"/>
<path d="M1548 1487L1549 1488L1548 1487Z" fill="#FE6655"/>
<path d="M1774.67 1488.33L1775.33 1488.67L1774.67 1488.33ZM1941 1488L1942 1489L1941 1488ZM1940 1489L1941 1490L1940 1489Z" fill="#FC30B0"/>
<path d="M1550 1490L1551 1491L1550 1490Z" fill="#FF8227"/>
<path d="M1716 1490L1717 1491L1716 1490Z" fill="#FE6655"/>
<path d="M1773 1490L1774 1491L1773 1490ZM1938.67 1490.33L1939.33 1490.67L1938.67 1490.33ZM1771 1491L1772 1492L1771 1491Z" fill="#FC30B0"/>
<path d="M1553 1493L1554 1494L1553 1493Z" fill="#FE6655"/>
<path d="M1769.67 1493.33L1770.33 1493.67L1769.67 1493.33ZM1936 1493L1937 1494L1936 1493ZM1768 1494L1769 1495L1768 1494Z" fill="#FC30B0"/>
<path d="M1935 1494L1936 1495L1935 1494Z" fill="#FF8227"/>
<path d="M1722.33 1495.67L1722.67 1496.33L1722.33 1495.67ZM1767 1495L1768 1496L1767 1495ZM1933.33 1495.67L1933.67 1496.33L1933.33 1495.67ZM1766 1496L1767 1497L1766 1496ZM1723 1497L1724 1498L1723 1497ZM1765.33 1497.67L1765.67 1498.33L1765.33 1497.67ZM1724 1498L1725 1499L1724 1498Z" fill="#FC30B0"/>
<path d="M1559 1499L1560 1500L1559 1499Z" fill="#FF8227"/>
<path d="M1725 1499L1726 1500L1725 1499ZM1763 1499L1764 1500L1763 1499ZM1930 1499L1931 1500L1930 1499ZM1726.67 1500.33L1727.33 1500.67L1726.67 1500.33ZM1762 1500L1763 1501L1762 1500ZM1727.67 1502.33L1728.33 1502.67L1727.67 1502.33ZM1927 1502L1928 1503L1927 1502ZM1730.33 1503.67L1730.67 1504.33L1730.33 1503.67ZM1759.67 1503.33L1760.33 1503.67L1759.67 1503.33Z" fill="#FC30B0"/>
<path d="M1565 1504L1566 1505L1565 1504Z" fill="#FE6655"/>
<path d="M1758 1504L1759 1505L1758 1504ZM1732 1505L1733 1506L1732 1505ZM1757 1505L1758 1506L1757 1505ZM1924 1505L1925 1506L1924 1505ZM1923 1506L1924 1507L1923 1506Z" fill="#FC30B0"/>
<path d="M1567 1507L1568 1508L1567 1507Z" fill="#FF8227"/>
<path d="M1756 1507L1757 1508L1756 1507ZM1922 1507L1923 1508L1922 1507ZM1734 1508L1737 1511L1734 1508ZM1754 1508L1755 1509L1754 1508ZM1753 1509L1752 1511H1754L1753 1509Z" fill="#FC30B0"/>
<path d="M1570.67 1510.33L1571.33 1510.67L1570.67 1510.33Z" fill="#FE6655"/>
<path d="M1919 1510L1920 1511L1919 1510Z" fill="#FC30B0"/>
<path d="M1572 1511L1573 1512L1572 1511Z" fill="#FE6655"/>
<path d="M1751 1511L1752 1512L1751 1511Z" fill="#FC30B0"/>
<path d="M1918 1511L1919 1512L1918 1511Z" fill="#FF8227"/>
<path d="M1739.33 1512.67L1739.67 1513.33L1739.33 1512.67ZM1750 1512L1751 1513L1750 1512ZM1916.33 1512.67L1916.67 1513.33L1916.33 1512.67ZM1749 1513L1750 1514L1749 1513ZM1740 1514L1741 1515L1740 1514ZM1748.33 1514.67L1748.67 1515.33L1748.33 1514.67ZM1741 1515L1742 1516L1741 1515Z" fill="#FC30B0"/>
<path d="M1576 1516L1577 1517L1576 1516Z" fill="#FF8227"/>
<path d="M1742 1516L1743 1517L1742 1516ZM1743 1517V1518L1748 1516L1743 1517ZM1913 1516L1914 1517L1913 1516ZM1744 1519L1745 1520L1744 1519ZM1910 1519L1911 1520L1910 1519Z" fill="#FC30B0"/>
<path d="M1582 1521L1583 1522L1582 1521Z" fill="#FE6655"/>
<path d="M1907 1522L1908 1523L1907 1522ZM1906 1523L1907 1524L1906 1523Z" fill="#FC30B0"/>
<path d="M1584 1524L1585 1525L1584 1524Z" fill="#FF8227"/>
<path d="M1905 1524L1906 1525L1905 1524ZM1903 1525L1904 1526L1903 1525Z" fill="#FC30B0"/>
<path d="M1587.67 1527.33L1588.33 1527.67L1587.67 1527.33Z" fill="#FE6655"/>
<path d="M1902 1527L1903 1528L1902 1527Z" fill="#FC30B0"/>
<path d="M1589 1528L1590 1529L1589 1528Z" fill="#FE6655"/>
<path d="M1901 1528L1902 1529L1901 1528ZM1898.67 1530.33L1899.33 1530.67L1898.67 1530.33Z" fill="#FC30B0"/>
<path d="M1593 1533L1594 1534L1593 1533Z" fill="#FF8227"/>
<path d="M1896 1533L1897 1534L1896 1533ZM1893 1536L1894 1537L1893 1536ZM1891 1537L1892 1538L1891 1537Z" fill="#FC30B0"/>
<path d="M1599 1538L1600 1539L1599 1538Z" fill="#FE6655"/>
<path d="M1890 1538L1891 1539L1890 1538Z" fill="#FC30B0"/>
<path d="M1601 1541L1602 1542L1601 1541Z" fill="#FF8227"/>
<path d="M1888 1541L1889 1542L1888 1541Z" fill="#FC30B0"/>
<path d="M1604.67 1544.33L1605.33 1544.67L1604.67 1544.33Z" fill="#FE6655"/>
<path d="M1885 1544L1886 1545L1885 1544Z" fill="#FC30B0"/>
<path d="M1606 1545L1607 1546L1606 1545Z" fill="#FE6655"/>
<path d="M1884 1545L1885 1546L1884 1545ZM1882 1547L1883 1548L1882 1547Z" fill="#FC30B0"/>
<path d="M1610 1550L1611 1551L1610 1550Z" fill="#FF8227"/>
<path d="M1879 1550L1880 1551L1879 1550ZM1876 1553L1877 1554L1876 1553ZM1874 1554L1875 1555L1874 1554Z" fill="#FC30B0"/>
<path d="M1616.67 1555.33L1617.33 1555.67L1616.67 1555.33Z" fill="#FE6655"/>
<path d="M1873 1555L1874 1556L1873 1555ZM1872 1556L1873 1557L1872 1556Z" fill="#FC30B0"/>
<path d="M1618 1558L1619 1559L1618 1558Z" fill="#FF8227"/>
<path d="M1620 1558L1621 1559L1620 1558Z" fill="#FE6655"/>
<path d="M1870 1558L1871 1559L1870 1558ZM1868 1560L1866 1563L1868 1560Z" fill="#FC30B0"/>
<path d="M1621.67 1561.33L1622.33 1561.67L1621.67 1561.33ZM1623 1562L1624 1563L1623 1562Z" fill="#FE6655"/>
<path d="M1864 1564L1865 1565L1864 1564Z" fill="#FC30B0"/>
<path d="M1628 1566L1631 1569L1628 1566Z" fill="#FE6655"/>
<path d="M1627 1567L1628 1568L1627 1567Z" fill="#FF8227"/>
<path d="M1862 1567L1863 1568L1862 1567ZM1860 1568L1861 1569L1860 1568ZM1859 1570L1860 1571L1859 1570ZM1856 1572L1857 1573L1856 1572Z" fill="#FC30B0"/>
<path d="M1636 1573L1638 1575L1636 1573ZM1639 1574L1640 1575L1639 1574Z" fill="#FE6655"/>
<path d="M1854 1574L1855 1575L1854 1574ZM1853 1575L1854 1576L1853 1575Z" fill="#FC30B0"/>
<path d="M1639 1576L1640 1577L1639 1576Z" fill="#FE6655"/>
<path d="M1851 1577L1849 1580L1851 1577Z" fill="#FC30B0"/>
<path d="M1640 1578L1641 1579L1640 1578Z" fill="#FE6655"/>
<path d="M1643 1581L1646 1585L1643 1581ZM1845 1584L1846 1585L1845 1584ZM1646 1585L1647 1586L1646 1585ZM1843 1585L1844 1586L1843 1585ZM1647 1586L1650 1590H1651L1647 1586Z" fill="#FC30B0"/>
<path d="M1842 1586L1843 1587L1842 1586Z" fill="#FF8227"/>
<path d="M1842 1587L1843 1588L1842 1587ZM1651 1590L1655 1593V1592L1651 1590ZM1655 1594V1596H1657L1655 1594ZM1834.33 1594.67L1834.67 1595.33L1834.33 1594.67ZM1657 1596L1658 1597L1657 1596ZM1831 1597L1832 1598L1831 1597ZM1660 1599L1661 1600L1660 1599ZM1829 1599L1830 1600L1829 1599ZM1661 1600V1602H1663V1600H1661ZM1827 1601L1828 1602L1827 1601Z" fill="#FC30B0"/>
<path d="M2289 1719V1718L2266 1717V1716C2275.11 1711.52 2281.25 1695.54 2286.4 1687C2297.84 1668.03 2309.58 1649.26 2320.5 1630C2325.48 1621.23 2332.93 1612.63 2336 1603C2284.42 1603 2232.66 1602 2181 1602C2157.38 1602 2129.11 1597.51 2108 1610.07C2067.26 1634.31 2073.64 1694.49 2115 1713.9C2132.56 1722.15 2155.17 1719 2174 1719H2289Z" fill="#FE6655"/>
<path d="M1664 1603V1605H1666L1664 1603ZM1825.33 1603.67L1825.67 1604.33L1825.33 1603.67ZM2122 1604L2123 1605L2122 1604Z" fill="#FC30B0"/>
<path d="M1068.67 1605.33L1069.33 1605.67L1068.67 1605.33Z" fill="#FE6655"/>
<path d="M1667.33 1605.67L1667.67 1606.33L1667.33 1605.67Z" fill="#FC30B0"/>
<path d="M1823 1605L1824 1606L1823 1605Z" fill="#FF8227"/>
<path d="M1471 1606L1472 1607L1471 1606Z" fill="#FE6655"/>
<path d="M1822 1606L1823 1607L1822 1606Z" fill="#FC30B0"/>
<path d="M1476 1607L1477 1608L1476 1607Z" fill="#FF8227"/>
<path d="M1668 1607L1672 1610V1609L1668 1607Z" fill="#FC30B0"/>
<path d="M1432 1608L1433 1609L1432 1608ZM1478 1608L1479 1609L1478 1608Z" fill="#FE6655"/>
<path d="M1818 1610L1819 1611L1818 1610Z" fill="#FC30B0"/>
<path d="M1425 1611L1426 1612L1425 1611ZM1484 1611L1485 1612L1484 1611Z" fill="#FE6655"/>
<path d="M1672 1611V1613H1674L1672 1611Z" fill="#FC30B0"/>
<path d="M1485 1612L1486 1613L1485 1612Z" fill="#FF8227"/>
<path d="M1817 1612L1818 1613L1817 1612Z" fill="#FC30B0"/>
<path d="M1488 1613L1489 1614L1488 1613Z" fill="#FF8227"/>
<path d="M1674 1613L1675 1614L1674 1613ZM2102 1613L2103 1614L2102 1613Z" fill="#FC30B0"/>
<path d="M1421 1614L1422 1615L1421 1614Z" fill="#FF8227"/>
<path d="M1814 1614L1815 1615L1814 1614ZM1813 1615L1814 1616L1813 1615Z" fill="#FC30B0"/>
<path d="M1491 1616L1492 1617L1491 1616Z" fill="#FE6655"/>
<path d="M1677 1616L1678 1617L1677 1616ZM1812 1616L1813 1617L1812 1616ZM1678 1617V1619H1680V1617H1678ZM1811 1617L1812 1618L1811 1617ZM1810 1618L1811 1619L1810 1618Z" fill="#FC30B0"/>
<path d="M1495 1619L1496 1620L1495 1619Z" fill="#FF8227"/>
<path d="M1681 1620V1622H1683L1681 1620ZM1808 1620L1809 1621L1808 1620ZM2095 1620L2096 1621L2095 1620Z" fill="#FC30B0"/>
<path d="M1412 1621L1413 1622L1412 1621Z" fill="#FF8227"/>
<path d="M1806 1622L1807 1623L1806 1622ZM2093 1622L2094 1623L2093 1622ZM1684 1623L1685 1624L1684 1623ZM1805 1623L1806 1624L1805 1623ZM1685 1624L1686 1625L1685 1624Z" fill="#FC30B0"/>
<path d="M1408 1625L1409 1626L1408 1625Z" fill="#FE6655"/>
<path d="M1686 1626V1627H1689L1686 1626ZM1801 1627L1802 1628L1801 1627ZM1689 1628V1630H1691L1689 1628ZM1800 1628L1801 1629L1800 1628ZM2088 1629L2089 1630L2088 1629Z" fill="#FC30B0"/>
<path d="M1403 1630L1404 1631L1403 1630Z" fill="#FE6655"/>
<path d="M1691 1630L1692 1631L1691 1630ZM1798 1630L1799 1631L1798 1630Z" fill="#FC30B0"/>
<path d="M1507 1631L1508 1632L1507 1631Z" fill="#FF8227"/>
<path d="M1795 1633L1796 1634L1795 1633ZM1695 1634V1636L1697 1634H1695Z" fill="#FC30B0"/>
<path d="M1398 1635L1399 1636L1398 1635Z" fill="#FE6655"/>
<path d="M1792 1636L1793 1637L1792 1636ZM1698 1637L1699 1638L1698 1637ZM1791 1637L1792 1638L1791 1637ZM1699 1638L1700 1639L1699 1638ZM1700 1639L1701 1640L1700 1639ZM1789 1639L1790 1640L1789 1639ZM2084 1639L2085 1640L2084 1639ZM1788 1640L1789 1641L1788 1640ZM2083 1640L2084 1641L2083 1640ZM1701 1641L1702 1642L1701 1641ZM1787 1641L1788 1642L1787 1641Z" fill="#FC30B0"/>
<path d="M1703 1643L1704 1644L1703 1643Z" fill="#FF8227"/>
<path d="M1704 1643L1706 1645V1643H1704ZM1706 1645L1707 1646L1706 1645ZM1707 1646L1708 1647L1707 1646ZM1782 1646L1783 1647L1782 1646ZM1710.33 1647.67L1710.67 1648.33L1710.33 1647.67ZM1780 1647L1781 1648L1780 1647Z" fill="#FC30B0"/>
<path d="M1385 1648L1386 1649L1385 1648Z" fill="#FE6655"/>
<path d="M1711 1649L1712 1650L1711 1649ZM1777 1649L1778 1650L1777 1649ZM1712.67 1650.33L1713.33 1650.67L1712.67 1650.33ZM1776 1650L1777 1651L1776 1650ZM2080 1650L2081 1651L2080 1650ZM1714 1651L1717 1653L1714 1651ZM1774.67 1651.33L1775.33 1651.67L1774.67 1651.33Z" fill="#FC30B0"/>
<path d="M1773 1652L1774 1653L1773 1652Z" fill="#FF8227"/>
<path d="M1718 1653L1719 1654L1718 1653ZM1770.67 1653.33L1771.33 1653.67L1770.67 1653.33ZM1720 1654L1721 1655L1720 1654ZM1722 1654L1723 1655L1722 1654ZM1767.67 1654.33L1768.33 1654.67L1767.67 1654.33Z" fill="#FC30B0"/>
<path d="M1378 1655L1379 1656L1378 1655Z" fill="#FE6655"/>
<path d="M1765 1655L1766 1656L1765 1655ZM1724 1656L1725 1657L1724 1656ZM1726 1656V1657H1729L1726 1656ZM1762 1656L1763 1657L1762 1656ZM1764 1656L1765 1657L1764 1656ZM1729.67 1657.33L1730.33 1657.67L1729.67 1657.33ZM1758.67 1657.33L1759.33 1657.67L1758.67 1657.33ZM1754.67 1658.33L1755.33 1658.67L1754.67 1658.33ZM1735 1659L1736 1660L1735 1659ZM1739 1659V1660H1751L1739 1659ZM1752.67 1659.33L1753.33 1659.67L1752.67 1659.33ZM2080 1669L2081 1670L2080 1669Z" fill="#FC30B0"/>
<path d="M2613 1673L2614 1674L2613 1673Z" fill="#FE6655"/>
<path d="M2612 1674L2613 1675L2612 1674Z" fill="#FC30B0"/>
<path d="M2083 1679L2084 1680L2083 1679ZM2084 1680L2085 1681L2084 1680Z" fill="#FF8227"/>
<path d="M2611 1681L2612 1682L2611 1681Z" fill="#FC30B0"/>
<path d="M2610 1683L2611 1684L2610 1683ZM1558 1684L1559 1685L1558 1684Z" fill="#FE6655"/>
<path d="M2609 1684L2610 1685L2609 1684Z" fill="#FC30B0"/>
<path d="M1559 1686L1560 1687L1559 1686Z" fill="#FE6655"/>
<path d="M2087 1687L2088 1688L2087 1687Z" fill="#FC30B0"/>
<path d="M2608 1687L2609 1688L2608 1687Z" fill="#FE6655"/>
<path d="M2608 1688L2609 1689L2608 1688Z" fill="#FC30B0"/>
<path d="M1562.67 1689.33L1563.33 1689.67L1562.67 1689.33Z" fill="#FE6655"/>
<path d="M2088 1690L2089 1691L2088 1690Z" fill="#FF8227"/>
<path d="M2606 1690L2607 1691L2606 1690Z" fill="#FC30B0"/>
<path d="M1564 1692L1565 1696H1566L1567 1692H1564Z" fill="#FE6655"/>
<path d="M2089 1692L2090 1693L2089 1692Z" fill="#FC30B0"/>
<path d="M2605 1692L2606 1693L2605 1692Z" fill="#FE6655"/>
<path d="M2090 1693L2091 1694L2090 1693Z" fill="#FC30B0"/>
<path d="M2604 1693L2605 1694L2604 1693ZM1182 1694L1183 1695L1182 1694ZM1567 1695L1568 1696L1567 1695ZM1569 1695L1570 1696L1569 1695Z" fill="#FE6655"/>
<path d="M1890 1695L1891 1696L1890 1695Z" fill="#FC30B0"/>
<path d="M2033 1966C2035.4 1971.79 2043.78 1981.9 2050 1983C2052.52 1989.15 2060.11 1996.25 2067 1996C2067.63 2000.76 2074.24 2001.68 2078 2000C2078.89 2004.2 2084.53 2004.2 2088 2003L2099 2005H2126V2004H2109L2110 2002L2094 2003C2108.56 1975.65 2126.1 1949.34 2142.42 1923C2147.79 1914.35 2160.47 1900.36 2160 1890H2171V1889C2152.39 1888.85 2131.7 1889.77 2114 1885C2112.44 1876.6 2099.22 1868.22 2093.42 1862.08C2074.16 1841.68 2053.91 1821.93 2033.75 1802.43C2012.21 1781.59 1992.55 1757.95 1969.75 1738.5C1954.61 1725.59 1942.46 1705.8 1922.99 1698.85C1883.56 1684.78 1832.84 1716.74 1842.76 1762.17C1848.77 1789.68 1871.12 1806.99 1890.34 1825.88C1921.36 1856.39 1952.88 1886.71 1982.99 1918.09C1994.09 1929.65 2005.9 1940.53 2016.99 1952.09C2021.28 1956.56 2026.78 1964.9 2033 1966Z" fill="#FE6655"/>
<path d="M1911 1695L1912 1696L1911 1695ZM2603 1695L2604 1696L2603 1695ZM1885 1696L1886 1697L1885 1696Z" fill="#FC30B0"/>
<path d="M1915 1696L1916 1697L1915 1696ZM2092 1696L2093 1697L2092 1696Z" fill="#FF8227"/>
<path d="M1567 1697V1698L1570 1699V1698V1697H1567Z" fill="#FE6655"/>
<path d="M1884 1697L1885 1698L1884 1697ZM1916 1697L1917 1698L1916 1697Z" fill="#FC30B0"/>
<path d="M2093 1697L2094 1698L2093 1697Z" fill="#FF8227"/>
<path d="M2602 1697L2603 1698L2602 1697Z" fill="#FC30B0"/>
<path d="M1511 1803L1516 1804L1520 1812L1525 1817L1535 1824L1534 1826L1539 1831L1541 1830C1543.04 1835.75 1549.2 1841.98 1555 1844L1562 1855L1564 1854L1567 1860L1570 1863L1576 1869L1597 1887L1609.67 1901.83L1641.66 1933.67L1655 1946L1619.26 1982.5L1542.08 2060.35L1513 2090C1494.25 2077.49 1474.86 2055.95 1460 2039L1458 2040L1446 2030L1426 2026L1415 2028C1409.09 2026.77 1390.55 2031.34 1389 2038L1379 2044L1375 2049L1376 2052L1370 2057L1366.02 2069L1364 2092L1365 2098H1367L1366 2101L1377 2119L1376 2121L1385 2131L1387 2130C1390.37 2136.52 1396.1 2140.42 1401.16 2145.48C1410.78 2155.11 1420.2 2164.87 1430 2174.35C1448.32 2192.07 1468.34 2221 1493.71 2228.55C1529.61 2239.23 1553.48 2215.63 1576.58 2191.9C1612.77 2154.69 1650.05 2118.45 1686.71 2081.71C1710.51 2057.85 1734.16 2033.84 1758 2010C1774.56 1993.44 1791.6 1979.18 1795.55 1954.96C1800.18 1926.55 1780.59 1906.27 1762 1888C1731.88 1858.41 1702.68 1827.92 1672.83 1798.05C1665.21 1790.42 1657.78 1782.53 1650 1775.04C1646.37 1771.54 1640.51 1767.96 1639 1763L1630 1754C1623.59 1752.2 1607.03 1735.66 1605 1729C1592.79 1725.52 1587.35 1706.81 1575 1703L1576 1701L1573 1698C1564.41 1702.39 1559.52 1716.01 1554.58 1724C1545.73 1738.27 1537.27 1752.79 1528.32 1767C1521.02 1778.58 1512.75 1789.47 1511 1803Z" fill="#FE6655"/>
<path d="M1879 1698L1880 1699L1879 1698Z" fill="#FC30B0"/>
<path d="M1922 1698L1923 1699L1922 1698Z" fill="#FF8227"/>
<path d="M1876 1699L1877 1700L1876 1699Z" fill="#FC30B0"/>
<path d="M1332 1700L1333 1701L1332 1700ZM2599 1700L2600 1701L2599 1700Z" fill="#FE6655"/>
<path d="M1928 1702L1929 1703L1928 1702ZM2098 1702L2099 1703L2098 1702ZM1578 1703L1579 1704L1578 1703ZM1579.33 1704.67L1579.67 1705.33L1579.33 1704.67ZM1934 1704L1935 1705L1934 1704ZM2100 1704L2101 1705L2100 1704ZM1867 1705L1868 1706L1867 1705Z" fill="#FC30B0"/>
<path d="M2593 1705L2594 1706L2593 1705Z" fill="#FE6655"/>
<path d="M1580 1706L1584 1709L1580 1706ZM1936 1706L1937 1707L1936 1706ZM2593 1706L2594 1707L2593 1706Z" fill="#FC30B0"/>
<path d="M1325 1707L1326 1708L1325 1707Z" fill="#FE6655"/>
<path d="M1937 1707L1938 1708L1937 1707ZM2103 1707L2104 1708L2103 1707ZM2591 1707L2592 1708L2591 1707Z" fill="#FC30B0"/>
<path d="M1324 1708L1325 1709L1324 1708ZM2589 1708L2590 1709L2589 1708Z" fill="#FE6655"/>
<path d="M1584 1709V1711H1586L1584 1709ZM2106 1709L2107 1710L2106 1709ZM1860 1710L1861 1711L1860 1710ZM1941 1710L1942 1711L1941 1710ZM2108 1710L2109 1711L2108 1710ZM1586 1711L1587 1712L1586 1711ZM2109 1711L2110 1712L2109 1711ZM1587 1712L1588 1713L1587 1712ZM2112 1712L2113 1713L2112 1712Z" fill="#FC30B0"/>
<path d="M2582 1712L2583 1713L2582 1712Z" fill="#FE6655"/>
<path d="M1857 1713L1858 1714L1857 1713ZM1944 1713L1945 1714L1944 1713Z" fill="#FC30B0"/>
<path d="M2114 1713L2115 1714L2114 1713Z" fill="#FF8227"/>
<path d="M2580 1713L2581 1714L2580 1713Z" fill="#FE6655"/>
<path d="M2581 1713L2582 1714L2581 1713ZM1588 1714L1591 1717L1588 1714ZM1945 1714L1946 1715L1945 1714Z" fill="#FC30B0"/>
<path d="M2578 1714L2579 1715L2578 1714Z" fill="#FE6655"/>
<path d="M1946 1715L1947 1716L1946 1715Z" fill="#FF8227"/>
<path d="M2118 1715L2119 1716L2118 1715ZM1855 1716L1856 1717L1855 1716ZM1947 1716L1948 1717L1947 1716ZM2121.67 1716.33L2122.33 1716.67L2121.67 1716.33Z" fill="#FC30B0"/>
<path d="M2569 1716L2570 1717L2569 1716Z" fill="#FE6655"/>
<path d="M2573 1716L2574 1717L2573 1716ZM1591 1717L1593 1719V1717H1591ZM1948 1717L1949 1718L1948 1717ZM2130.67 1718.33L2131.33 1718.67L2130.67 1718.33Z" fill="#FC30B0"/>
<path d="M2132.67 1718.33L2133.33 1718.67L2132.67 1718.33Z" fill="#FF8227"/>
<path d="M2405 1718V1719H2513L2480 1718H2405ZM2557 1718V1719H2561L2557 1718Z" fill="#FE6655"/>
<path d="M2564.67 1718.33L2565.33 1718.67L2564.67 1718.33ZM1593 1719L1594 1720L1593 1719ZM1595 1720L1596 1721L1595 1720ZM1852 1720L1853 1721L1852 1720ZM1951 1720L1952 1721L1951 1720Z" fill="#FC30B0"/>
<path d="M1953 1722L1954 1723L1953 1722Z" fill="#FC30B0"/>
<path d="M1032.67 1723.33L1033.33 1723.67L1032.67 1723.33Z" fill="#FE6655"/>
<path d="M1597 1723L1598 1724L1597 1723ZM1850 1723L1851 1724L1850 1723Z" fill="#FC30B0"/>
<path d="M1110.67 1724.33L1111.33 1724.67L1110.67 1724.33Z" fill="#B001A5"/>
<path d="M1598.67 1724.33L1599.33 1724.67L1598.67 1724.33Z" fill="#FC30B0"/>
<path d="M1955 1724L1956 1725L1955 1724Z" fill="#FF8227"/>
<path d="M1600 1725L1601 1726L1600 1725ZM1956 1725L1957 1726L1956 1725ZM1601 1727L1602 1728L1601 1727ZM1958 1727L1959 1728L1958 1727ZM1602 1728L1603 1729L1602 1728ZM1603 1729L1604 1730L1603 1729ZM1604 1730L1605 1731L1604 1730ZM1961 1730L1962 1731L1961 1730ZM1962 1731L1963 1732L1962 1731ZM1607 1732L1608 1733L1607 1732Z" fill="#FC30B0"/>
<path d="M1963 1732L1964 1733L1963 1732Z" fill="#FF8227"/>
<path d="M1299 1733L1300 1734L1299 1733Z" fill="#FE6655"/>
<path d="M1964 1733L1965 1734L1964 1733ZM1608.67 1734.33L1609.33 1734.67L1608.67 1734.33ZM1845.67 1734.33L1846.33 1734.67L1845.67 1734.33ZM1965 1734L1966 1735L1965 1734ZM1844 1737L1845 1738L1844 1737ZM1968 1737L1969 1738L1968 1737ZM1843 1739L1844 1740L1843 1739ZM1614 1740L1615 1741L1614 1740ZM1616.33 1741.67L1616.67 1742.33L1616.33 1741.67ZM1617 1743L1618 1744L1617 1743ZM1975 1744L1976 1745L1975 1744ZM1619 1745L1620 1746L1619 1745ZM1976 1745L1977 1746L1976 1745ZM1621.33 1746.67L1621.67 1747.33L1621.33 1746.67Z" fill="#FC30B0"/>
<path d="M1451 1748L1452 1749L1451 1748Z" fill="#FF8227"/>
<path d="M1457 1748L1458 1749L1457 1748Z" fill="#FE6655"/>
<path d="M1979 1748L1980 1749L1979 1748Z" fill="#FC30B0"/>
<path d="M1450 1749L1451 1750L1450 1749Z" fill="#FE6655"/>
<path d="M1623 1749L1625 1751V1749H1623ZM1981 1750L1982 1751L1981 1750ZM1625 1751L1626 1752L1625 1751ZM1626 1752L1627 1753L1626 1752ZM1983 1752L1984 1753L1983 1752Z" fill="#FC30B0"/>
<path d="M1463 1753L1464 1754L1463 1753ZM1444 1754L1445 1755L1444 1754Z" fill="#FE6655"/>
<path d="M1463 1754L1464 1755L1463 1754Z" fill="#FF8227"/>
<path d="M1628 1754L1629 1755L1628 1754Z" fill="#FC30B0"/>
<path d="M1466 1757L1467 1758L1466 1757Z" fill="#FF8227"/>
<path d="M1631 1757L1632 1758L1631 1757Z" fill="#FC30B0"/>
<path d="M1633 1758L1634 1759L1633 1758Z" fill="#FF8227"/>
<path d="M1634 1759L1635 1760L1634 1759ZM1842 1759L1843 1760L1842 1759ZM1842 1761L1843 1762L1842 1761ZM1992 1761L1993 1762L1992 1761Z" fill="#FC30B0"/>
<path d="M1270 1762L1271 1763L1270 1762Z" fill="#FE6655"/>
<path d="M1437 1762L1438 1763L1437 1762ZM1471 1762L1472 1763L1471 1762Z" fill="#FF8227"/>
<path d="M1636 1762L1637 1763L1636 1762ZM1993 1762L1994 1763L1993 1762ZM1638 1764L1640 1766V1764H1638Z" fill="#FC30B0"/>
<path d="M1474 1765L1475 1766L1474 1765Z" fill="#FE6655"/>
<path d="M1843.33 1765.67L1843.67 1766.33L1843.33 1765.67ZM1996 1765L1997 1766L1996 1765Z" fill="#FC30B0"/>
<path d="M1433 1766L1434 1767L1433 1766ZM1641 1766L1642 1767L1641 1766Z" fill="#FF8227"/>
<path d="M1431 1767L1432 1768L1431 1767Z" fill="#FE6655"/>
<path d="M1844 1767L1845 1768L1844 1767ZM1998 1767L1999 1768L1998 1767ZM1642.67 1768.33L1643.33 1768.67L1642.67 1768.33ZM1644.33 1769.67L1644.67 1770.33L1644.33 1769.67ZM2000 1769L2001 1770L2000 1769Z" fill="#FC30B0"/>
<path d="M1480 1770L1481 1771L1480 1770Z" fill="#FE6655"/>
<path d="M1480 1771L1481 1772L1480 1771Z" fill="#FF8227"/>
<path d="M1646 1771L1647 1772L1646 1771ZM1647 1772L1648 1773L1647 1772Z" fill="#FC30B0"/>
<path d="M1483 1773L1484 1774L1483 1773ZM1424.67 1774.33L1425.33 1774.67L1424.67 1774.33Z" fill="#FE6655"/>
<path d="M1483 1774L1484 1775L1483 1774Z" fill="#FF8227"/>
<path d="M1256 1775L1257 1776L1256 1775Z" fill="#FE6655"/>
<path d="M1650 1775L1651 1776L1650 1775Z" fill="#FF8227"/>
<path d="M1651 1776L1652 1777L1651 1776Z" fill="#FC30B0"/>
<path d="M1486 1777L1487 1778L1486 1777Z" fill="#FF8227"/>
<path d="M2009 1778L2010 1779L2009 1778Z" fill="#FC30B0"/>
<path d="M1488 1779L1489 1780L1488 1779Z" fill="#FE6655"/>
<path d="M2010 1779L2011 1780L2010 1779Z" fill="#FC30B0"/>
<path d="M1491 1780L1492 1781L1491 1780Z" fill="#FE6655"/>
<path d="M1655 1780L1656 1781L1655 1780Z" fill="#FF8227"/>
<path d="M2013 1782L2014 1783L2013 1782ZM1658 1783L1659 1784L1658 1783ZM1850 1783L1851 1784L1850 1783ZM2015 1784L2016 1785L2015 1784ZM1852 1786L1853 1787L1852 1786ZM2017 1786L2018 1787L2017 1786ZM1661 1787L1662 1788L1661 1787ZM1853 1787L1854 1788L1853 1787Z" fill="#FC30B0"/>
<path d="M1410 1788L1411 1789L1410 1788ZM1497 1788L1498 1789L1497 1788Z" fill="#FE6655"/>
<path d="M1663 1788L1664 1789L1663 1788ZM1664 1789L1665 1790L1664 1789ZM1854 1789L1855 1790L1854 1789ZM2021 1789L2022 1790L2021 1789Z" fill="#FC30B0"/>
<path d="M1500.33 1790.67L1500.67 1791.33L1500.33 1790.67ZM1503 1791L1504 1792L1503 1791Z" fill="#FE6655"/>
<path d="M1665 1791L1666 1792L1665 1791Z" fill="#FC30B0"/>
<path d="M1505 1792L1506 1793L1505 1792Z" fill="#FE6655"/>
<path d="M1667.33 1792.67L1667.67 1793.33L1667.33 1792.67ZM1857 1792L1858 1793L1857 1792Z" fill="#FC30B0"/>
<path d="M1405 1793L1406 1794L1405 1793Z" fill="#FE6655"/>
<path d="M1503 1794L1504 1795L1503 1794Z" fill="#FF8227"/>
<path d="M1506 1794L1505 1796L1506 1794Z" fill="#FE6655"/>
<path d="M1668 1794L1669 1795L1668 1794Z" fill="#FC30B0"/>
<path d="M1508 1795L1509 1799H1510L1508 1795Z" fill="#FE6655"/>
<path d="M2026 1795L2027 1796L2026 1795ZM2027 1796L2028 1797L2027 1796ZM1672 1797L1673 1798L1672 1797Z" fill="#FC30B0"/>
<path d="M1233 1798L1234 1799L1233 1798Z" fill="#FE6655"/>
<path d="M1863 1798L1864 1799L1863 1798Z" fill="#FC30B0"/>
<path d="M2029 1798L2030 1799L2029 1798Z" fill="#FF8227"/>
<path d="M2030 1799L2031 1800L2030 1799ZM1675.33 1800.67L1675.67 1801.33L1675.33 1800.67Z" fill="#FC30B0"/>
<path d="M1396 1801L1397 1802L1396 1801Z" fill="#FE6655"/>
<path d="M1866 1801L1867 1802L1866 1801ZM2032 1801L2033 1802L2032 1801Z" fill="#FC30B0"/>
<path d="M1395 1803L1396 1804L1395 1803Z" fill="#FE6655"/>
<path d="M1512 1803L1513 1804L1512 1803ZM2034 1803L2035 1804L2034 1803ZM1513 1804L1514 1805L1513 1804ZM1515 1804L1519 1810L1515 1804ZM1678 1804L1679 1805L1678 1804ZM1680 1805L1681 1806L1680 1805ZM2038 1806L2039 1807L2038 1806ZM1681 1807L1682 1808L1681 1807ZM1872 1807L1873 1808L1872 1807ZM1519.67 1810.33L1520.33 1810.67L1519.67 1810.33ZM1684 1810L1685 1811L1684 1810ZM1875 1810L1876 1811L1875 1810ZM1521 1812L1522 1813L1521 1812ZM2043 1812L2044 1813L2043 1812ZM1522 1813L1523 1814L1522 1813ZM1687 1813L1688 1814L1687 1813ZM2044 1813L2045 1814L2044 1813ZM1524.33 1814.67L1524.67 1815.33L1524.33 1814.67Z" fill="#FC30B0"/>
<path d="M2046 1815L2047 1816L2046 1815Z" fill="#FF8227"/>
<path d="M1382 1816L1383 1817L1382 1816Z" fill="#FE6655"/>
<path d="M1526 1816L1528 1819L1526 1816ZM1690 1816L1691 1817L1690 1816ZM2047 1816L2048 1817L2047 1816Z" fill="#FC30B0"/>
<path d="M1381 1817L1382 1818L1381 1817Z" fill="#FE6655"/>
<path d="M1692 1818L1693 1819L1692 1818ZM1883 1818L1884 1819L1883 1818Z" fill="#FC30B0"/>
<path d="M1379 1819L1380 1820L1379 1819Z" fill="#FE6655"/>
<path d="M1528 1819L1529 1820L1528 1819ZM1693 1819L1694 1820L1693 1819ZM1529 1820L1530 1821L1529 1820ZM2051 1820L2052 1821L2051 1820ZM1530 1821L1533 1824L1530 1821ZM1695 1821L1696 1822L1695 1821ZM2055 1823L2056 1824L2055 1823ZM1533.67 1824.33L1534.33 1824.67L1533.67 1824.33ZM1698 1824L1699 1825L1698 1824ZM1889 1824L1890 1825L1889 1824ZM1699 1825L1700 1826L1699 1825ZM1535 1826L1536 1827L1535 1826Z" fill="#FC30B0"/>
<path d="M1370 1827L1371 1828L1370 1827Z" fill="#FE6655"/>
<path d="M1701 1827L1702 1828L1701 1827ZM1892 1827L1893 1828L1892 1827ZM1537 1828L1538 1829L1537 1828ZM1702 1828L1703 1829L1702 1828ZM1538 1829L1539 1830L1538 1829ZM2060 1829L2061 1830L2060 1829Z" fill="#FC30B0"/>
<path d="M1368 1830L1369 1831L1368 1830Z" fill="#FE6655"/>
<path d="M1540 1830L1541 1831L1540 1830ZM2061 1830L2062 1831L2061 1830ZM1705 1831L1706 1832L1705 1831ZM1541 1832L1542 1833L1541 1832Z" fill="#FC30B0"/>
<path d="M2063 1832L2064 1833L2063 1832Z" fill="#FF8227"/>
<path d="M1365 1833L1366 1834L1365 1833Z" fill="#FE6655"/>
<path d="M1707 1833L1708 1834L1707 1833Z" fill="#FC30B0"/>
<path d="M2064 1833L2065 1834L2064 1833Z" fill="#FF8227"/>
<path d="M1708 1834L1709 1835L1708 1834ZM1544 1835L1545 1836L1544 1835Z" fill="#FC30B0"/>
<path d="M1709 1835L1710 1836L1709 1835Z" fill="#FF8227"/>
<path d="M1900 1835L1901 1836L1900 1835ZM1545 1836V1838H1547L1545 1836ZM1710 1836L1711 1837L1710 1836ZM1711 1837L1712 1838L1711 1837ZM2068 1837L2069 1838L2068 1837Z" fill="#FC30B0"/>
<path d="M1903 1838L1904 1839L1903 1838Z" fill="#FF8227"/>
<path d="M1548 1839L1549 1840L1548 1839ZM2072 1840L2073 1841L2072 1840Z" fill="#FC30B0"/>
<path d="M1356 1841L1357 1842L1356 1841Z" fill="#B001A5"/>
<path d="M1550.33 1841.67L1550.67 1842.33L1550.33 1841.67ZM1715 1841L1716 1842L1715 1841ZM1906 1841L1907 1842L1906 1841ZM1552 1843L1553 1844L1552 1843ZM1908 1843L1909 1844L1908 1843ZM1553 1844V1846L1555 1844H1553ZM1718 1844L1719 1845L1718 1844ZM1909 1844L1910 1845L1909 1844Z" fill="#FC30B0"/>
<path d="M1719 1845L1720 1846L1719 1845Z" fill="#FF8227"/>
<path d="M1720.33 1846.67L1720.67 1847.33L1720.33 1846.67ZM2077 1846L2078 1847L2077 1846Z" fill="#FC30B0"/>
<path d="M1351 1847L1352 1848L1351 1847Z" fill="#FF8227"/>
<path d="M1555 1847L1556 1848L1555 1847ZM2078 1847L2079 1848L2078 1847ZM1557 1848L1558 1849L1557 1848ZM2080 1848L2081 1849L2080 1848ZM1558 1849L1560 1852L1558 1849Z" fill="#FC30B0"/>
<path d="M1723 1849L1724 1850L1723 1849ZM2080 1849L2081 1850L2080 1849ZM1348 1850L1349 1851L1348 1850ZM2081 1850L2082 1851L2081 1850ZM1725 1851L1726 1852L1725 1851ZM1726 1852L1727 1853L1726 1852Z" fill="#FF8227"/>
<path d="M1917 1852L1918 1853L1917 1852ZM1727 1853L1728 1854L1727 1853ZM1563 1854L1564 1855L1563 1854ZM1728 1854L1729 1855L1728 1854ZM2085 1854L2086 1855L2085 1854Z" fill="#FC30B0"/>
<path d="M1920 1855L1921 1856L1920 1855Z" fill="#FF8227"/>
<path d="M1564 1856L1565 1857L1564 1856ZM1565.67 1857.33L1566.33 1857.67L1565.67 1857.33ZM2089 1857L2090 1858L2089 1857ZM1732 1858L1733 1859L1732 1858ZM1923 1858L1924 1859L1923 1858ZM1568 1859L1569 1860L1568 1859ZM1925 1860L1926 1861L1925 1860ZM2092 1860L2093 1861L2092 1860ZM1570 1861L1571 1862L1570 1861ZM1735 1861L1736 1862L1735 1861ZM1571.33 1862.67L1571.67 1863.33L1571.33 1862.67Z" fill="#FC30B0"/>
<path d="M1736 1862L1737 1863L1736 1862ZM2093 1862L2094 1863L2093 1862Z" fill="#FF8227"/>
<path d="M1737 1863L1738 1864L1737 1863ZM2094 1863L2095 1864L2094 1863Z" fill="#FC30B0"/>
<path d="M1572 1864L1573 1865L1572 1864Z" fill="#FF8227"/>
<path d="M2095 1864L2096 1865L2095 1864ZM1574 1865L1575 1866L1574 1865Z" fill="#FC30B0"/>
<path d="M1930 1865L1931 1866L1930 1865Z" fill="#FF8227"/>
<path d="M2097 1865L2098 1866L2097 1865ZM1740 1866L1741 1867L1740 1866Z" fill="#FC30B0"/>
<path d="M2097 1866L2098 1867L2097 1866ZM1331 1867L1332 1868L1331 1867ZM1575 1867L1576 1868L1575 1867ZM2098 1867L2099 1868L2098 1867Z" fill="#FF8227"/>
<path d="M1577 1868L1578 1869L1577 1868Z" fill="#FC30B0"/>
<path d="M1742 1868L1743 1869L1742 1868Z" fill="#FF8227"/>
<path d="M1578 1869L1580 1872L1578 1869ZM1743 1869L1744 1870L1743 1869ZM1934 1869L1935 1870L1934 1869ZM1744 1870L1745 1871L1744 1870Z" fill="#FC30B0"/>
<path d="M2101 1870L2102 1871L2101 1870Z" fill="#FF8227"/>
<path d="M1745 1871L1746 1872L1745 1871Z" fill="#FC30B0"/>
<path d="M2102 1871L2103 1872L2102 1871Z" fill="#FF8227"/>
<path d="M1580.67 1872.33L1581.33 1872.67L1580.67 1872.33Z" fill="#FC30B0"/>
<path d="M1937 1872L1938 1873L1937 1872ZM1581 1873L1582 1874L1581 1873Z" fill="#FF8227"/>
<path d="M1747 1873L1748 1874L1747 1873ZM1582 1874L1583 1875L1582 1874Z" fill="#FC30B0"/>
<path d="M1939 1874L1940 1875L1939 1874Z" fill="#FF8227"/>
<path d="M2106 1874L2107 1875L2106 1874ZM1940 1875L1941 1876L1940 1875ZM1585 1877L1586 1878L1585 1877ZM1751 1877L1752 1878L1751 1877ZM1942 1877L1943 1878L1942 1877ZM2109 1877L2110 1878L2109 1877ZM1753 1879L1754 1880L1753 1879Z" fill="#FC30B0"/>
<path d="M2110 1879L2111 1880L2110 1879Z" fill="#FF8227"/>
<path d="M1588 1880L1589 1881L1588 1880ZM2111 1880L2112 1881L2111 1880ZM1754 1881L1755 1882L1754 1881ZM2112 1881L2113 1882L2112 1881Z" fill="#FC30B0"/>
<path d="M1315 1882L1316 1883L1315 1882Z" fill="#FE6655"/>
<path d="M1591 1882L1592 1883L1591 1882ZM1756 1882L1757 1883L1756 1882ZM1948 1882L1949 1883L1948 1882ZM2114 1882L2115 1883L2114 1882ZM1757 1883L1758 1884L1757 1883Z" fill="#FC30B0"/>
<path d="M2114.67 1884.33L2115.33 1884.67L2114.67 1884.33Z" fill="#FF8227"/>
<path d="M1593 1885L1594 1886L1593 1885ZM1759 1885L1760 1886L1759 1885ZM1760 1886L1761 1887L1760 1886ZM1951 1886L1952 1887L1951 1886ZM1595.67 1887.33L1596.33 1887.67L1595.67 1887.33Z" fill="#FC30B0"/>
<path d="M2118 1887L2119 1888L2118 1887Z" fill="#FF8227"/>
<path d="M1762 1888L1763 1889L1762 1888ZM1597 1889L1598 1890L1597 1889ZM1954 1889L1955 1890L1954 1889Z" fill="#FC30B0"/>
<path d="M2172.67 1889.33L2173.33 1889.67L2172.67 1889.33ZM2175 1889V1890H2179L2175 1889Z" fill="#FE6655"/>
<path d="M1599 1890L1600 1891L1599 1890ZM1764 1890L1765 1891L1764 1890ZM1765 1891L1766 1892L1765 1891ZM1957 1892L1958 1893L1957 1892ZM1602 1894L1603 1895L1602 1894ZM1959 1894L1960 1895L1959 1894ZM1770 1896L1771 1897L1770 1896Z" fill="#FC30B0"/>
<path d="M1299 1898L1300 1899L1299 1898ZM1298 1899L1299 1900L1298 1899Z" fill="#FE6655"/>
<path d="M1608 1899L1609 1900L1608 1899ZM1965 1899L1966 1900L1965 1899ZM1774 1900L1775 1901L1774 1900ZM1776 1902L1777 1903L1776 1902ZM1611 1903L1612 1904L1611 1903ZM1968 1903L1969 1904L1968 1903Z" fill="#FC30B0"/>
<path d="M1612 1904L1613 1905L1612 1904ZM1969 1904L1970 1905L1969 1904ZM1778 1905L1779 1906L1778 1905Z" fill="#FF8227"/>
<path d="M1614 1906L1615 1907L1614 1906ZM1779 1906L1780 1907L1779 1906ZM1971 1906L1972 1907L1971 1906ZM1615 1907L1616 1908L1615 1907ZM1780 1907L1781 1908L1780 1907ZM1619 1911L1620 1912L1619 1911ZM1976 1911L1977 1912L1976 1911ZM1784 1912L1785 1913L1784 1912Z" fill="#FC30B0"/>
<path d="M1785 1913L1786 1914L1785 1913Z" fill="#FF8227"/>
<path d="M1786 1914L1787 1915L1786 1914ZM1623 1915L1624 1916L1623 1915ZM1625 1916L1626 1917L1625 1916ZM1982 1916L1983 1917L1982 1916Z" fill="#FC30B0"/>
<path d="M1280 1917L1281 1918L1280 1917Z" fill="#FF8227"/>
<path d="M1788 1918L1789 1919L1788 1918Z" fill="#FC30B0"/>
<path d="M1278 1919L1279 1920L1278 1919Z" fill="#FF8227"/>
<path d="M1628 1920L1629 1921L1628 1920ZM1789.33 1920.67L1789.67 1921.33L1789.33 1920.67ZM1985 1920L1986 1921L1985 1920Z" fill="#FC30B0"/>
<path d="M1629 1921L1630 1922L1629 1921Z" fill="#FF8227"/>
<path d="M1986 1921L1987 1922L1986 1921Z" fill="#FC30B0"/>
<path d="M1275 1922L1276 1923L1275 1922Z" fill="#FF8227"/>
<path d="M1631 1923L1632 1924L1631 1923ZM1791 1923L1792 1924L1791 1923ZM1988 1923L1989 1924L1988 1923ZM1634 1926L1635 1927L1634 1926ZM1792 1926L1793 1927L1792 1926ZM1636 1928L1637 1929L1636 1928ZM1993 1928L1994 1929L1993 1928ZM1793 1930L1794 1931L1793 1930ZM1794.33 1932.67L1794.67 1933.33L1794.33 1932.67ZM1642 1933L1643 1934L1642 1933ZM1999 1933L2000 1934L1999 1933ZM1643 1935L1644 1936L1643 1935ZM1795 1936L1796 1937L1795 1936ZM1645 1937L1646 1938L1645 1937Z" fill="#FC30B0"/>
<path d="M1795 1937L1796 1938L1795 1937Z" fill="#FF8227"/>
<path d="M2002 1937L2003 1938L2002 1937Z" fill="#FC30B0"/>
<path d="M1646 1938L1647 1939L1646 1938Z" fill="#FF8227"/>
<path d="M2003 1938L2004 1939L2003 1938ZM1648 1940L1649 1941L1648 1940ZM2005 1940L2006 1941L2005 1940ZM1795 1942L1796 1943L1795 1942ZM1651 1943L1652 1944L1651 1943ZM2010 1945L2011 1946L2010 1945ZM1654 1946L1655 1947L1654 1946ZM1653 1948L1654 1949L1653 1948ZM1652 1949L1653 1950L1652 1949ZM1651 1950L1652 1951L1651 1950ZM2016 1950L2017 1951L2016 1950ZM1650 1951L1651 1952L1650 1951Z" fill="#FC30B0"/>
<path d="M1243 1953L1244 1954L1243 1953Z" fill="#FE6655"/>
<path d="M1648 1953L1649 1954L1648 1953ZM1647 1954L1648 1955L1647 1954ZM2019 1954L2020 1955L2019 1954ZM1646 1955L1647 1956L1646 1955Z" fill="#FC30B0"/>
<path d="M1795 1955L1796 1956L1795 1955Z" fill="#FF8227"/>
<path d="M2020 1955L2021 1956L2020 1955ZM1795.33 1956.67L1795.67 1957.33L1795.33 1956.67Z" fill="#FC30B0"/>
<path d="M2404 1956L2405 1957L2404 1956Z" fill="#FE6655"/>
<path d="M2022 1957L2023 1958L2022 1957ZM1643 1958L1644 1959L1643 1958ZM1794 1959L1795 1960L1794 1959ZM2404 1959L2405 1960L2404 1959ZM1794.33 1961.67L1794.67 1962.33L1794.33 1961.67ZM1638.33 1962.67L1638.67 1963.33L1638.33 1962.67ZM2027 1962L2028 1963L2027 1962Z" fill="#FC30B0"/>
<path d="M2403 1962L2404 1963L2403 1962Z" fill="#FE6655"/>
<path d="M1793 1963L1794 1964L1793 1963Z" fill="#FC30B0"/>
<path d="M1230 1966L1231 1967L1230 1966Z" fill="#FE6655"/>
<path d="M1635 1966L1636 1967L1635 1966ZM1792.33 1966.67L1792.67 1967.33L1792.33 1966.67Z" fill="#FC30B0"/>
<path d="M2032 1966L2033 1967L2032 1966Z" fill="#FF8227"/>
<path d="M2401 1966L2402 1967L2401 1966Z" fill="#FE6655"/>
<path d="M1634 1967L1635 1968L1634 1967ZM2033 1967L2034 1968L2033 1967ZM1633 1968L1634 1969L1633 1968ZM1791.33 1970.67L1791.67 1971.33L1791.33 1970.67ZM1630 1971L1631 1972L1630 1971ZM2036 1971L2038 1973L2036 1971Z" fill="#FC30B0"/>
<path d="M2037 1971L2038 1972L2037 1971Z" fill="#FF8227"/>
<path d="M2400 1971L2401 1972L2400 1971ZM1629 1972L1630 1973L1629 1972ZM2039 1974L2040 1975L2039 1974ZM2398 1974L2399 1975L2398 1974ZM1626 1975L1627 1976L1626 1975ZM2396 1976L2397 1977L2396 1976Z" fill="#FC30B0"/>
<path d="M2395 1978L2396 1979L2395 1978Z" fill="#FE6655"/>
<path d="M1621.67 1979.33L1622.33 1979.67L1621.67 1979.33ZM1786 1979L1787 1980L1786 1979ZM2044 1979L2045 1980L2044 1979Z" fill="#FC30B0"/>
<path d="M2394 1979L2395 1980L2394 1979ZM1216 1980L1217 1981L1216 1980Z" fill="#FE6655"/>
<path d="M1784 1982L1785 1983L1784 1982ZM1618 1983L1619 1984L1618 1983ZM1783 1983L1784 1984L1783 1983Z" fill="#FC30B0"/>
<path d="M2049 1983L2050 1984L2049 1983Z" fill="#FF8227"/>
<path d="M2392 1983L2393 1984L2392 1983ZM1617 1984L1618 1985L1617 1984ZM2050 1984L2051 1985L2050 1984ZM1616 1985L1617 1986L1616 1985ZM2390 1985L2391 1986L2390 1985Z" fill="#FC30B0"/>
<path d="M1210 1986L1211 1987L1210 1986Z" fill="#FE6655"/>
<path d="M1781 1986L1782 1987L1781 1986ZM1780 1987L1781 1988L1780 1987ZM1613 1988L1614 1989L1613 1988ZM2053 1988L2054 1989L2053 1988ZM1612 1989L1613 1990L1612 1989ZM1778 1989L1779 1990L1778 1989ZM1777 1990L1778 1991L1777 1990Z" fill="#FC30B0"/>
<path d="M2055 1990L2056 1991L2055 1990Z" fill="#FF8227"/>
<path d="M1776 1991L1777 1992L1776 1991Z" fill="#FC30B0"/>
<path d="M2057 1991L2058 1992L2057 1991Z" fill="#FF8227"/>
<path d="M1609 1992L1610 1993L1609 1992Z" fill="#FC30B0"/>
<path d="M2058 1992L2059 1993L2058 1992Z" fill="#FF8227"/>
<path d="M1774 1993L1775 1994L1774 1993ZM1773 1994L1774 1995L1773 1994Z" fill="#FC30B0"/>
<path d="M2062 1994L2063 1995L2062 1994Z" fill="#FF8227"/>
<path d="M1772 1995L1773 1996L1772 1995ZM1604.67 1996.33L1605.33 1996.67L1604.67 1996.33ZM1771 1996L1772 1997L1771 1996ZM2063 1996L2064 1997L2063 1996Z" fill="#FC30B0"/>
<path d="M2065.67 1996.33L2066.33 1996.67L2065.67 1996.33Z" fill="#FF8227"/>
<path d="M2377 1996L2378 1997L2377 1996ZM1769 1998L1770 1999L1769 1998ZM1768 1999L1769 2000L1768 1999ZM2069 1999L2070 2000L2069 1999Z" fill="#FC30B0"/>
<path d="M2371 1999L2372 2000L2371 1999Z" fill="#FE6655"/>
<path d="M2372 1999L2373 2000L2372 1999Z" fill="#FC30B0"/>
<path d="M1191 2000L1192 2001L1191 2000Z" fill="#FE6655"/>
<path d="M1601 2000L1602 2001L1601 2000Z" fill="#FC30B0"/>
<path d="M2071 2000L2072 2001L2071 2000ZM2077 2000L2076 2002H2078L2077 2000Z" fill="#FF8227"/>
<path d="M1600 2001L1601 2002L1600 2001ZM1766 2001L1767 2002L1766 2001ZM2074 2001L2075 2002L2074 2001ZM2365.67 2001.33L2366.33 2001.67L2365.67 2001.33ZM1599 2002L1600 2003L1599 2002ZM1765 2002L1766 2003L1765 2002ZM2077 2002L2078 2003L2077 2002Z" fill="#FC30B0"/>
<path d="M2080 2002L2081 2003L2080 2002ZM2082 2002L2083 2003L2082 2002Z" fill="#FF8227"/>
<path d="M2362 2002L2363 2003L2362 2002Z" fill="#FE6655"/>
<path d="M2363 2002L2364 2003L2363 2002ZM1764 2003L1765 2004L1764 2003Z" fill="#FC30B0"/>
<path d="M2084 2003L2085 2004L2084 2003ZM2087.33 2003.67L2087.67 2004.33L2087.33 2003.67ZM2089.67 2003.33L2090.33 2003.67L2089.67 2003.33Z" fill="#FF8227"/>
<path d="M1597 2004L1598 2005L1597 2004ZM1763 2004L1764 2005L1763 2004ZM2084 2004V2005H2087L2084 2004ZM2354 2004V2005H2358L2354 2004Z" fill="#FC30B0"/>
<path d="M906 2005L907 2006L906 2005ZM909 2005L910 2006L909 2005Z" fill="#B001A5"/>
<path d="M2090 2005V2006H2348L2324 2005H2272H2090ZM1595 2006L1596 2007L1595 2006ZM1761 2006L1762 2007L1761 2006ZM1760 2007L1761 2008L1760 2007ZM1759 2008L1760 2009L1759 2008ZM1757 2010L1758 2011L1757 2010ZM1756 2011L1757 2012L1756 2011ZM1755 2012L1756 2013L1755 2012ZM1588 2013L1589 2014L1588 2013ZM1754 2013L1755 2014L1754 2013ZM1587 2014L1588 2015L1587 2014ZM1752 2015L1753 2016L1752 2015ZM1751 2016L1752 2017L1751 2016ZM1584 2017L1585 2018L1584 2017ZM1749 2018L1750 2019L1749 2018ZM1582 2019L1583 2020L1582 2019ZM1748 2019L1749 2020L1748 2019ZM1747 2020L1748 2021L1747 2020ZM1580 2021L1581 2022L1580 2021ZM1746 2021L1747 2022L1746 2021ZM1578 2023L1579 2024L1578 2023ZM1744 2023L1745 2024L1744 2023ZM1743 2024L1744 2025L1743 2024ZM1742 2025L1743 2026L1742 2025ZM1414.33 2026.67L1414.67 2027.33L1414.33 2026.67ZM1416 2026L1417 2027L1416 2026ZM1428.67 2026.33L1429.33 2026.67L1428.67 2026.33ZM1431 2026L1432 2027L1431 2026ZM1408 2027V2028H1411L1408 2027ZM1433 2027L1434 2028L1433 2027ZM1435.67 2027.33L1436.33 2027.67L1435.67 2027.33ZM1740 2027L1741 2028L1740 2027ZM1407 2028L1408 2029L1407 2028ZM1739 2028L1740 2029L1739 2028ZM1404 2029L1405 2030L1404 2029ZM1738 2029L1739 2030L1738 2029ZM1398 2030V2031H1402L1398 2030ZM1444 2030L1445 2031L1444 2030ZM1571 2030L1572 2031L1571 2030ZM1737 2030L1738 2031L1737 2030ZM1446 2031L1447 2032L1446 2031ZM1570 2031L1571 2032L1570 2031ZM1395 2032L1396 2033L1395 2032ZM1735 2032L1736 2033L1735 2032ZM1394 2033L1395 2034L1394 2033ZM1450.67 2033.33L1451.33 2033.67L1450.67 2033.33ZM1734 2033L1735 2034L1734 2033ZM1393 2034L1394 2035L1393 2034ZM1452 2034L1453 2035L1452 2034ZM1567 2034L1568 2035L1567 2034ZM1454 2035L1455 2036L1454 2035ZM1732 2035L1733 2036L1732 2035ZM1456.33 2036.67L1456.67 2037.33L1456.33 2036.67ZM1731 2036L1732 2037L1731 2036ZM1387.67 2037.33L1388.33 2037.67L1387.67 2037.33ZM1730 2037L1731 2038L1730 2037ZM1458.33 2038.67L1458.67 2039.33L1458.33 2038.67ZM1563 2038L1564 2039L1563 2038ZM1729 2038L1730 2039L1729 2038Z" fill="#FC30B0"/>
<path d="M1384 2039L1385 2040L1384 2039Z" fill="#FF8227"/>
<path d="M1728 2039L1729 2040L1728 2039ZM1460 2040L1461 2041L1460 2040ZM1561 2040L1562 2041L1561 2040ZM1727 2040L1728 2041L1727 2040ZM1382.33 2041.67L1382.67 2042.33L1382.33 2041.67ZM1462 2041L1463 2042L1462 2041ZM1726 2041L1727 2042L1726 2041ZM1725 2042L1726 2043L1725 2042ZM1464 2043L1465 2044L1464 2043ZM1558 2043L1559 2044L1558 2043ZM1724 2043L1725 2044L1724 2043ZM1380 2044L1381 2045L1380 2044ZM1378 2045L1376 2049L1380 2045H1378ZM1722 2045L1723 2046L1722 2045ZM1467 2046L1468 2047L1467 2046ZM1721 2046L1722 2047L1721 2046ZM1554 2047L1555 2048L1554 2047ZM1553 2048L1554 2049L1553 2048ZM1719 2048L1720 2049L1719 2048ZM1718 2049L1719 2050L1718 2049ZM1374 2050V2052H1376V2050H1374ZM1471 2050L1472 2051L1471 2050ZM1551 2050L1552 2051L1551 2050ZM1550 2051L1551 2052L1550 2051ZM1716 2051L1717 2052L1716 2051ZM1373 2052L1371 2057H1372L1373 2052ZM1549 2052L1550 2053L1549 2052Z" fill="#FC30B0"/>
<path d="M1715 2052L1716 2053L1715 2052Z" fill="#FF8227"/>
<path d="M1474 2053L1475 2054L1474 2053ZM1546 2055L1547 2056L1546 2055ZM1711 2056L1712 2057L1711 2056ZM1544 2057L1545 2058L1544 2057ZM1710 2057L1711 2058L1710 2057ZM1370 2058L1367 2066H1368L1370 2058ZM1541 2060L1542 2061L1541 2060ZM1707 2060L1708 2061L1707 2060Z" fill="#FC30B0"/>
<path d="M1705 2062L1706 2063L1705 2062Z" fill="#FF8227"/>
<path d="M1704 2063L1705 2064L1704 2063ZM1537 2064L1538 2065L1537 2064ZM1536 2065L1537 2066L1536 2065ZM1702 2065L1703 2066L1702 2065ZM1366 2066L1367 2067L1366 2066ZM1701 2066L1702 2067L1701 2066ZM1367 2067L1368 2068L1367 2067ZM1488 2067L1489 2068L1488 2067ZM1534 2067L1535 2068L1534 2067ZM1700 2067L1701 2068L1700 2067ZM1365.33 2068.67L1365.67 2069.33L1365.33 2068.67ZM1533 2068L1534 2069L1533 2068ZM1699 2068L1700 2069L1699 2068ZM1532 2069L1533 2070L1532 2069Z" fill="#FC30B0"/>
<path d="M1491 2070L1492 2071L1491 2070ZM1365 2071V2076H1366L1365 2071ZM1529 2072L1530 2073L1529 2072ZM1494 2073L1495 2074L1494 2073ZM1694 2073L1695 2074L1694 2073ZM1495 2074L1496 2075L1495 2074ZM1527 2074L1528 2075L1527 2074ZM1693 2074L1694 2075L1693 2074ZM1524 2077L1525 2078L1524 2077ZM1690 2077L1691 2078L1690 2077ZM1364.33 2078.67L1364.67 2079.33L1364.33 2078.67ZM1500.33 2078.67L1500.67 2079.33L1500.33 2078.67ZM1363 2080L1364 2091H1365L1363 2080ZM1687 2080L1688 2081L1687 2080ZM1503 2081L1504 2082L1503 2081ZM1504 2082L1505 2083L1504 2082ZM1685 2082L1686 2083L1685 2082ZM1505 2083L1506 2084L1505 2083ZM1517 2084L1518 2085L1517 2084ZM1506 2085L1507 2086L1506 2085ZM1682 2085L1683 2086L1682 2085ZM1508 2086L1509 2087L1508 2086ZM1515 2086L1516 2087L1515 2086ZM1509 2087L1510 2088L1509 2087ZM1510 2088L1511 2089L1510 2088ZM1511.67 2089.33L1512.33 2089.67L1511.67 2089.33ZM1365 2091L1366 2094L1365 2091ZM1676 2091L1677 2092L1676 2091ZM1673 2094L1674 2095L1673 2094ZM1365.33 2095.67L1365.67 2096.33L1365.33 2095.67ZM1672 2095L1673 2096L1672 2095ZM1670 2097L1671 2098L1670 2097ZM1365 2098V2100L1367 2098H1365ZM1668 2099L1669 2100L1668 2099ZM1366 2101L1368 2104V2101H1366ZM1367 2105L1368 2106L1367 2105ZM1368.33 2106.67L1368.67 2107.33L1368.33 2106.67ZM1370 2108L1371 2109L1370 2108ZM1659 2108L1660 2109L1659 2108ZM1658 2109L1659 2110L1658 2109ZM1370 2110L1371 2114H1372L1370 2110ZM1657 2110L1658 2111L1657 2110ZM1656 2111L1657 2112L1656 2111ZM1372 2115L1373 2116L1372 2115ZM1373 2116L1374 2117L1373 2116ZM1651 2116L1652 2117L1651 2116ZM1374.33 2117.67L1374.67 2118.33L1374.33 2117.67ZM1649 2118L1650 2119L1649 2118ZM1375.67 2119.33L1376.33 2119.67L1375.67 2119.33Z" fill="#FC30B0"/>
<path d="M1698 2069L1699 2070L1698 2069Z" fill="#FF8227"/>
<path d="M1648 2119L1649 2120L1648 2119Z" fill="#FF8227"/>
<path d="M1377 2121L1378 2122L1377 2121ZM1378 2123L1379 2124L1378 2123ZM1379 2124L1381 2126V2124H1379ZM1642 2125L1643 2126L1642 2125ZM1382 2127L1383 2128L1382 2127ZM1640 2127L1641 2128L1640 2127ZM1383 2128L1384 2129L1383 2128ZM1386.33 2130.67L1386.67 2131.33L1386.33 2130.67ZM1387 2132L1390 2135L1387 2132ZM1390 2135L1391 2136L1390 2135ZM1391 2136L1392 2137L1391 2136ZM1630 2137L1631 2138L1630 2137ZM1393 2138L1394 2139L1393 2138ZM1395 2140L1396 2141L1395 2140ZM1396 2141L1398 2143V2141H1396ZM1625 2142L1626 2143L1625 2142ZM1398 2143L1400 2145V2143H1398ZM1400 2145L1403 2147L1400 2145Z" fill="#FC30B0"/>
<path d="M1622 2145L1623 2146L1622 2145Z" fill="#FF8227"/>
<path d="M1620 2148L1621 2149L1620 2148ZM1405 2149L1406 2150L1405 2149ZM1406 2150L1407 2151L1406 2150ZM1407 2151L1408 2152L1407 2151ZM1616 2151L1617 2152L1616 2151ZM1408 2152L1409 2153L1408 2152ZM1409 2153L1410 2154L1409 2153ZM1614 2153L1615 2154L1614 2153ZM1410 2154L1411 2155L1410 2154ZM1613 2154L1614 2155L1613 2154ZM1411 2155L1412 2156L1411 2155ZM1612 2156L1613 2157L1612 2156ZM1412 2157L1413 2158L1412 2157ZM1608 2159L1609 2160L1608 2159ZM1417 2162L1418 2163L1417 2162Z" fill="#FC30B0"/>
<path d="M1605 2162L1606 2163L1605 2162Z" fill="#FF8227"/>
<path d="M1420 2164L1421 2165L1420 2164ZM1421 2165L1422 2166L1421 2165ZM1603 2165L1604 2166L1603 2165ZM1599 2168L1600 2169L1599 2168ZM1426 2170L1427 2171L1426 2170ZM1597 2170L1598 2171L1597 2170ZM1427 2171L1428 2172L1427 2171ZM1596 2171L1597 2172L1596 2171ZM1595 2173L1596 2174L1595 2173ZM1430 2174L1431 2175L1430 2174ZM1431 2175L1432 2176L1431 2175ZM1592 2175L1593 2176L1592 2175ZM1591 2176L1592 2177L1591 2176ZM1433 2177L1434 2178L1433 2177ZM1434 2178L1435 2179L1434 2178ZM1590 2178L1591 2179L1590 2178Z" fill="#FC30B0"/>
<path d="M1588 2179L1589 2180L1588 2179Z" fill="#FF8227"/>
<path d="M1436 2180L1437 2181L1436 2180ZM1438 2182L1439 2183L1438 2182ZM1586 2182L1587 2183L1586 2182ZM1439 2183L1440 2184L1439 2183ZM1441 2185L1442 2186L1441 2185ZM1442 2186L1443 2187L1442 2186ZM1581 2187L1582 2188L1581 2187ZM1579 2188L1580 2189L1579 2188ZM1446 2190L1447 2191L1446 2190ZM1577.67 2190.33L1578.33 2190.67L1577.67 2190.33ZM1573 2195L1574 2196L1573 2195ZM1570 2197L1571 2198L1570 2197ZM1454 2198L1455 2199L1454 2198ZM1455 2199L1456 2200L1455 2199ZM1569 2199L1570 2200L1569 2199Z" fill="#FC30B0"/>
<path d="M1456 2200L1457 2201L1456 2200Z" fill="#FF8227"/>
<path d="M1457 2201L1458 2202L1457 2201ZM1458 2202L1459 2203L1458 2202ZM1459 2203L1460 2204L1459 2203ZM1564 2204L1565 2205L1564 2204ZM1461 2205L1462 2206L1461 2205ZM1562 2205L1563 2206L1562 2205ZM1462 2206L1464 2208V2206H1462ZM1560.67 2207.33L1561.33 2207.67L1560.67 2207.33ZM1465 2209L1466 2210L1465 2209ZM1468.67 2212.33L1469.33 2212.67L1468.67 2212.33ZM1555.67 2212.33L1556.33 2212.67L1555.67 2212.33ZM1553 2214L1554 2215L1553 2214ZM1552 2215L1553 2216L1552 2215ZM1550 2217L1551 2218L1550 2217ZM1547 2218L1548 2219L1547 2218ZM1477 2220L1478 2221L1477 2220ZM1479 2221L1480 2222L1479 2221ZM1544 2221L1545 2222L1544 2221ZM1480.67 2222.33L1481.33 2222.67L1480.67 2222.33ZM1542 2222L1543 2223L1542 2222ZM1482.67 2223.33L1483.33 2223.67L1482.67 2223.33ZM1540.67 2223.33L1541.33 2223.67L1540.67 2223.33ZM1486 2225L1487 2226L1486 2225ZM1488 2226L1489 2227L1488 2226ZM1537 2226L1538 2227L1537 2226Z" fill="#FC30B0"/>
<path d="M1532 2227L1533 2228L1532 2227Z" fill="#FF8227"/>
<path d="M1492 2228L1493 2229L1492 2228ZM1494 2228L1495 2229L1494 2228ZM1531 2228L1532 2229L1531 2228ZM1496 2229L1497 2230L1496 2229ZM1498 2229L1499 2230L1498 2229ZM1528 2229L1529 2230L1528 2229ZM1501.67 2230.33L1502.33 2230.67L1501.67 2230.33ZM1509 2230L1510 2231L1509 2230ZM1520 2230V2231H1523L1520 2230Z" fill="#FC30B0"/>
<path d="M2936.31 1542.18C2935.2 1532.83 2930.71 1525.56 2922.83 1520.39C2914.95 1515.22 2905.28 1512.64 2893.84 1512.64C2885.46 1512.64 2878.14 1513.99 2871.86 1516.7C2865.64 1519.41 2860.78 1523.13 2857.27 1527.87C2853.83 1532.61 2852.1 1538 2852.1 1544.03C2852.1 1549.08 2853.3 1553.42 2855.7 1557.05C2858.17 1560.62 2861.3 1563.6 2865.12 1566C2868.94 1568.34 2872.94 1570.28 2877.12 1571.82C2881.31 1573.3 2885.16 1574.5 2888.66 1575.42L2907.87 1580.59C2912.79 1581.88 2918.27 1583.67 2924.3 1585.95C2930.4 1588.22 2936.21 1591.33 2941.75 1595.27C2947.36 1599.15 2951.97 1604.13 2955.6 1610.23C2959.24 1616.32 2961.05 1623.8 2961.05 1632.66C2961.05 1642.88 2958.37 1652.12 2953.02 1660.36C2947.72 1668.61 2939.97 1675.17 2929.75 1680.03C2919.6 1684.89 2907.25 1687.32 2892.73 1687.32C2879.19 1687.32 2867.46 1685.14 2857.55 1680.77C2847.7 1676.4 2839.95 1670.3 2834.28 1662.49C2828.68 1654.67 2825.51 1645.59 2824.77 1635.25H2848.41C2849.02 1642.39 2851.43 1648.3 2855.61 1652.98C2859.86 1657.59 2865.21 1661.04 2871.68 1663.32C2878.2 1665.53 2885.22 1666.64 2892.73 1666.64C2901.47 1666.64 2909.32 1665.23 2916.27 1662.39C2923.23 1659.5 2928.74 1655.5 2932.8 1650.39C2936.86 1645.22 2938.89 1639.19 2938.89 1632.3C2938.89 1626.02 2937.14 1620.91 2933.63 1616.97C2930.12 1613.03 2925.5 1609.83 2919.78 1607.37C2914.06 1604.9 2907.87 1602.75 2901.22 1600.9L2877.95 1594.26C2863.18 1590.01 2851.49 1583.95 2842.87 1576.07C2834.25 1568.19 2829.94 1557.88 2829.94 1545.14C2829.94 1534.55 2832.81 1525.32 2838.53 1517.44C2844.32 1509.5 2852.07 1503.34 2861.8 1498.97C2871.58 1494.54 2882.51 1492.32 2894.57 1492.32C2906.76 1492.32 2917.59 1494.51 2927.07 1498.88C2936.55 1503.19 2944.06 1509.1 2949.6 1516.61C2955.2 1524.12 2958.16 1532.64 2958.47 1542.18H2936.31ZM3085.12 1626.02V1542.18H3106.91V1684H3085.12V1659.99H3083.64C3080.32 1667.2 3075.15 1673.32 3068.13 1678.37C3061.11 1683.35 3052.25 1685.85 3041.54 1685.85C3032.68 1685.85 3024.8 1683.91 3017.9 1680.03C3011.01 1676.09 3005.59 1670.18 3001.65 1662.3C2997.71 1654.36 2995.74 1644.36 2995.74 1632.3V1542.18H3017.53V1630.82C3017.53 1641.16 3020.43 1649.41 3026.21 1655.56C3032.06 1661.72 3039.51 1664.8 3048.56 1664.8C3053.97 1664.8 3059.48 1663.41 3065.08 1660.64C3070.75 1657.87 3075.49 1653.62 3079.3 1647.9C3083.18 1642.17 3085.12 1634.88 3085.12 1626.02ZM3146.82 1737.18V1542.18H3167.87V1564.71H3170.45C3172.05 1562.25 3174.27 1559.11 3177.1 1555.29C3180 1551.41 3184.12 1547.97 3189.47 1544.95C3194.89 1541.87 3202.22 1540.34 3211.45 1540.34C3223.39 1540.34 3233.92 1543.32 3243.03 1549.29C3252.14 1555.26 3259.24 1563.73 3264.35 1574.68C3269.46 1585.64 3272.02 1598.56 3272.02 1613.46C3272.02 1628.48 3269.46 1641.5 3264.35 1652.52C3259.24 1663.47 3252.17 1671.97 3243.12 1678C3234.07 1683.97 3223.64 1686.95 3211.82 1686.95C3202.71 1686.95 3195.41 1685.45 3189.94 1682.43C3184.46 1679.35 3180.24 1675.87 3177.29 1672C3174.33 1668.06 3172.05 1664.8 3170.45 1662.21H3168.61V1737.18H3146.82ZM3168.24 1613.09C3168.24 1623.8 3169.81 1633.25 3172.95 1641.44C3176.09 1649.56 3180.67 1655.93 3186.7 1660.55C3192.74 1665.1 3200.12 1667.38 3208.86 1667.38C3217.97 1667.38 3225.58 1664.98 3231.67 1660.18C3237.82 1655.32 3242.44 1648.79 3245.52 1640.61C3248.66 1632.36 3250.23 1623.19 3250.23 1613.09C3250.23 1603.12 3248.69 1594.13 3245.61 1586.13C3242.59 1578.07 3238.01 1571.7 3231.85 1567.02C3225.76 1562.28 3218.1 1559.91 3208.86 1559.91C3200 1559.91 3192.55 1562.16 3186.52 1566.65C3180.49 1571.08 3175.93 1577.3 3172.86 1585.3C3169.78 1593.24 3168.24 1602.5 3168.24 1613.09ZM3364.72 1686.95C3351.05 1686.95 3339.26 1683.94 3329.35 1677.91C3319.51 1671.81 3311.9 1663.32 3306.55 1652.42C3301.25 1641.47 3298.61 1628.73 3298.61 1614.2C3298.61 1599.67 3301.25 1586.87 3306.55 1575.79C3311.9 1564.65 3319.35 1555.97 3328.89 1549.75C3338.49 1543.47 3349.7 1540.34 3362.5 1540.34C3369.89 1540.34 3377.18 1541.57 3384.38 1544.03C3391.58 1546.49 3398.14 1550.49 3404.05 1556.03C3409.96 1561.51 3414.67 1568.77 3418.17 1577.82C3421.68 1586.87 3423.44 1598.01 3423.44 1611.24V1620.48H3314.12V1601.64H3401.28C3401.28 1593.64 3399.68 1586.5 3396.48 1580.22C3393.34 1573.94 3388.84 1568.99 3383 1565.36C3377.21 1561.72 3370.38 1559.91 3362.5 1559.91C3353.82 1559.91 3346.31 1562.06 3339.97 1566.37C3333.69 1570.62 3328.86 1576.16 3325.48 1582.99C3322.09 1589.82 3320.4 1597.15 3320.4 1604.97V1617.52C3320.4 1628.23 3322.24 1637.31 3325.94 1644.76C3329.69 1652.15 3334.89 1657.78 3341.54 1661.66C3348.19 1665.47 3355.91 1667.38 3364.72 1667.38C3370.44 1667.38 3375.61 1666.58 3380.23 1664.98C3384.91 1663.32 3388.94 1660.86 3392.32 1657.59C3395.71 1654.27 3398.32 1650.15 3400.17 1645.22L3421.22 1651.13C3419.01 1658.27 3415.28 1664.55 3410.05 1669.97C3404.82 1675.32 3398.35 1679.51 3390.66 1682.52C3382.97 1685.48 3374.32 1686.95 3364.72 1686.95ZM3456.58 1684V1542.18H3477.63V1563.6H3479.11C3481.7 1556.59 3486.38 1550.89 3493.15 1546.52C3499.92 1542.15 3507.55 1539.97 3516.04 1539.97C3517.64 1539.97 3519.64 1540 3522.05 1540.06C3524.45 1540.12 3526.26 1540.21 3527.49 1540.34V1562.49C3526.75 1562.31 3525.06 1562.03 3522.41 1561.66C3519.83 1561.23 3517.09 1561.02 3514.2 1561.02C3507.3 1561.02 3501.15 1562.46 3495.73 1565.36C3490.38 1568.19 3486.13 1572.13 3482.99 1577.17C3479.91 1582.16 3478.37 1587.85 3478.37 1594.26V1684H3456.58ZM3553.32 1684V1542.18H3575.11V1684H3553.32ZM3564.4 1518.55C3560.15 1518.55 3556.49 1517.1 3553.41 1514.21C3550.4 1511.31 3548.89 1507.84 3548.89 1503.77C3548.89 1499.71 3550.4 1496.23 3553.41 1493.34C3556.49 1490.45 3560.15 1489 3564.4 1489C3568.65 1489 3572.28 1490.45 3575.3 1493.34C3578.37 1496.23 3579.91 1499.71 3579.91 1503.77C3579.91 1507.84 3578.37 1511.31 3575.3 1514.21C3572.28 1517.1 3568.65 1518.55 3564.4 1518.55ZM3672.63 1686.95C3659.83 1686.95 3648.6 1683.91 3638.93 1677.81C3629.33 1671.72 3621.82 1663.2 3616.41 1652.24C3611.05 1641.28 3608.37 1628.48 3608.37 1613.83C3608.37 1599.06 3611.05 1586.16 3616.41 1575.14C3621.82 1564.13 3629.33 1555.57 3638.93 1549.48C3648.6 1543.38 3659.83 1540.34 3672.63 1540.34C3685.44 1540.34 3696.64 1543.38 3706.24 1549.48C3715.91 1555.57 3723.42 1564.13 3728.77 1575.14C3734.19 1586.16 3736.9 1599.06 3736.9 1613.83C3736.9 1628.48 3734.19 1641.28 3728.77 1652.24C3723.42 1663.2 3715.91 1671.72 3706.24 1677.81C3696.64 1683.91 3685.44 1686.95 3672.63 1686.95ZM3672.63 1667.38C3682.36 1667.38 3690.36 1664.89 3696.64 1659.9C3702.92 1654.92 3707.57 1648.36 3710.58 1640.24C3713.6 1632.11 3715.11 1623.31 3715.11 1613.83C3715.11 1604.35 3713.6 1595.52 3710.58 1587.33C3707.57 1579.14 3702.92 1572.53 3696.64 1567.48C3690.36 1562.43 3682.36 1559.91 3672.63 1559.91C3662.91 1559.91 3654.91 1562.43 3648.63 1567.48C3642.35 1572.53 3637.7 1579.14 3634.69 1587.33C3631.67 1595.52 3630.16 1604.35 3630.16 1613.83C3630.16 1623.31 3631.67 1632.11 3634.69 1640.24C3637.7 1648.36 3642.35 1654.92 3648.63 1659.9C3654.91 1664.89 3662.91 1667.38 3672.63 1667.38ZM3770.16 1684V1542.18H3791.21V1563.6H3792.69C3795.27 1556.59 3799.95 1550.89 3806.72 1546.52C3813.49 1542.15 3821.12 1539.97 3829.62 1539.97C3831.22 1539.97 3833.22 1540 3835.62 1540.06C3838.02 1540.12 3839.84 1540.21 3841.07 1540.34V1562.49C3840.33 1562.31 3838.64 1562.03 3835.99 1561.66C3833.4 1561.23 3830.66 1561.02 3827.77 1561.02C3820.88 1561.02 3814.72 1562.46 3809.31 1565.36C3803.95 1568.19 3799.7 1572.13 3796.56 1577.17C3793.49 1582.16 3791.95 1587.85 3791.95 1594.26V1684H3770.16ZM4029.4 1589.45C4029.4 1609.4 4025.8 1626.63 4018.59 1641.16C4011.39 1655.69 4001.51 1666.89 3988.96 1674.77C3976.4 1682.65 3962.06 1686.59 3945.93 1686.59C3929.8 1686.59 3915.46 1682.65 3902.9 1674.77C3890.35 1666.89 3880.47 1655.69 3873.27 1641.16C3866.07 1626.63 3862.46 1609.4 3862.46 1589.45C3862.46 1569.51 3866.07 1552.28 3873.27 1537.75C3880.47 1523.22 3890.35 1512.02 3902.9 1504.14C3915.46 1496.26 3929.8 1492.32 3945.93 1492.32C3962.06 1492.32 3976.4 1496.26 3988.96 1504.14C4001.51 1512.02 4011.39 1523.22 4018.59 1537.75C4025.8 1552.28 4029.4 1569.51 4029.4 1589.45ZM4007.24 1589.45C4007.24 1573.08 4004.5 1559.26 3999.02 1548C3993.6 1536.73 3986.25 1528.21 3976.95 1522.42C3967.72 1516.64 3957.38 1513.74 3945.93 1513.74C3934.48 1513.74 3924.11 1516.64 3914.82 1522.42C3905.58 1528.21 3898.23 1536.73 3892.75 1548C3887.33 1559.26 3884.62 1573.08 3884.62 1589.45C3884.62 1605.83 3887.33 1619.65 3892.75 1630.91C3898.23 1642.17 3905.58 1650.7 3914.82 1656.49C3924.11 1662.27 3934.48 1665.16 3945.93 1665.16C3957.38 1665.16 3967.72 1662.27 3976.95 1656.49C3986.25 1650.7 3993.6 1642.17 3999.02 1630.91C4004.5 1619.65 4007.24 1605.83 4007.24 1589.45ZM4171.31 1542.18C4170.2 1532.83 4165.71 1525.56 4157.83 1520.39C4149.95 1515.22 4140.28 1512.64 4128.84 1512.64C4120.46 1512.64 4113.14 1513.99 4106.86 1516.7C4100.64 1519.41 4095.78 1523.13 4092.27 1527.87C4088.83 1532.61 4087.1 1538 4087.1 1544.03C4087.1 1549.08 4088.3 1553.42 4090.7 1557.05C4093.17 1560.62 4096.3 1563.6 4100.12 1566C4103.94 1568.34 4107.94 1570.28 4112.12 1571.82C4116.31 1573.3 4120.16 1574.5 4123.66 1575.42L4142.87 1580.59C4147.79 1581.88 4153.27 1583.67 4159.3 1585.95C4165.4 1588.22 4171.21 1591.33 4176.75 1595.27C4182.36 1599.15 4186.97 1604.13 4190.6 1610.23C4194.24 1616.32 4196.05 1623.8 4196.05 1632.66C4196.05 1642.88 4193.37 1652.12 4188.02 1660.36C4182.72 1668.61 4174.97 1675.17 4164.75 1680.03C4154.6 1684.89 4142.25 1687.32 4127.73 1687.32C4114.19 1687.32 4102.46 1685.14 4092.55 1680.77C4082.7 1676.4 4074.95 1670.3 4069.28 1662.49C4063.68 1654.67 4060.51 1645.59 4059.77 1635.25H4083.41C4084.02 1642.39 4086.43 1648.3 4090.61 1652.98C4094.86 1657.59 4100.21 1661.04 4106.68 1663.32C4113.2 1665.53 4120.22 1666.64 4127.73 1666.64C4136.47 1666.64 4144.32 1665.23 4151.27 1662.39C4158.23 1659.5 4163.74 1655.5 4167.8 1650.39C4171.86 1645.22 4173.89 1639.19 4173.89 1632.3C4173.89 1626.02 4172.14 1620.91 4168.63 1616.97C4165.12 1613.03 4160.5 1609.83 4154.78 1607.37C4149.06 1604.9 4142.87 1602.75 4136.22 1600.9L4112.95 1594.26C4098.18 1590.01 4086.49 1583.95 4077.87 1576.07C4069.25 1568.19 4064.94 1557.88 4064.94 1545.14C4064.94 1534.55 4067.81 1525.32 4073.53 1517.44C4079.32 1509.5 4087.07 1503.34 4096.8 1498.97C4106.58 1494.54 4117.51 1492.32 4129.57 1492.32C4141.76 1492.32 4152.59 1494.51 4162.07 1498.88C4171.55 1503.19 4179.06 1509.1 4184.6 1516.61C4190.2 1524.12 4193.16 1532.64 4193.47 1542.18H4171.31Z" fill="url(#paint0_linear_209_491)"/>
<defs>
<linearGradient id="paint0_linear_209_491" x1="3510.5" y1="1432" x2="3510.5" y2="1747" gradientUnits="userSpaceOnUse">
<stop stop-color="#FE6655"/>
<stop offset="0.482292" stop-color="#FC30B0"/>
<stop offset="0.9999" stop-color="#FF8227"/>
</linearGradient>
</defs>
</svg>
